<?xml version="1.0" encoding="utf-8"?>
<!-- Generator: Adobe Illustrator 24.0.0, SVG Export Plug-In . SVG Version: 6.00 Build 0)  -->
<svg version="1.1" id="Layer_1" xmlns="http://www.w3.org/2000/svg" xmlns:xlink="http://www.w3.org/1999/xlink" x="0px" y="0px"
	 viewBox="0 0 1366 768" style="enable-background:new 0 0 1366 768;" xml:space="preserve">
<style type="text/css">
	.st0{fill:#00E1CD;}
	.st1{fill:#4085B8;}
	.st2{fill:url(#SVGID_1_);}
	.st3{fill:url(#SVGID_2_);}
</style>
<g>
	<path class="st0" d="M840.15,260.59c17.47,26,28.15,56.84,30.12,90h-49.08c-0.93-28.77-5.63-55.92-13.4-80.4
		C819.33,267.35,830.19,264.15,840.15,260.59z"/>
	<path class="st0" d="M826.1,242.37c-7.96,2.64-16.69,5-25.74,7.17c-7.88-18.98-17.65-35.82-28.99-49.85
		C792.28,210.29,810.82,224.87,826.1,242.37z"/>
	<path class="st0" d="M746.1,350.59c-0.29-20.65-1.51-45.05-4.1-69.68c15.84-1.45,30.84-3.56,45.06-6.21
		c7.3,22.87,11.72,48.59,12.64,75.89H746.1z"/>
	<path class="st0" d="M779.34,254.03c-12.51,2.28-25.87,4.12-39.99,5.45c-4.02-28.9-10.15-56.15-18.96-75.71
		C744.45,195.6,765.09,220.69,779.34,254.03z"/>
	<path class="st0" d="M653.96,350.59c0.3-25.42,1.66-48.24,3.76-68.16c10.3,0.57,20.76,0.93,31.55,0.93
		c10.77,0,21.24-0.36,31.54-0.93c2.1,19.92,3.47,42.75,3.79,68.16H653.96z"/>
	<path class="st0" d="M684.03,180.07c1.73-0.03,3.47-0.26,5.24-0.26c1.74,0,3.46,0.22,5.23,0.26c7.37,9.4,17.21,36.58,23.66,80.93
		c-9.43,0.51-18.99,0.83-28.89,0.83c-9.92,0-19.48-0.31-28.86-0.82C666.82,216.65,676.67,189.47,684.03,180.07z"/>
	<path class="st0" d="M658.16,183.77c-8.81,19.53-14.97,46.81-18.98,75.71c-14.08-1.33-27.44-3.15-40-5.45
		C613.41,220.69,634.09,195.57,658.16,183.77z"/>
	<path class="st0" d="M632.43,350.59h-53.61c0.95-27.3,5.37-53.02,12.64-75.89c14.23,2.66,29.23,4.76,45.07,6.21
		C633.95,305.54,632.72,329.94,632.43,350.59z"/>
	<path class="st0" d="M538.35,260.59c10.01,3.56,20.83,6.77,32.41,9.61c-7.75,24.46-12.48,51.62-13.41,80.38h-49.09
		C510.23,317.44,520.88,286.59,538.35,260.59z"/>
	<g>
		<path d="M355.49,450.71v8.25h-18.28v49.57h-9.78v-49.57h-18.32v-8.25H355.49z"/>
		<path d="M426.44,450.71v8.25H395.4v15.62h29.13v8.29H395.4v17.28h32.37v8.37h-42.15v-57.81H426.44z"/>
		<path d="M466.89,478.8c0,3.98,0.49,7.42,1.47,10.32c0.98,2.9,2.27,5.3,3.88,7.19c1.6,1.89,3.42,3.3,5.45,4.23
			c2.03,0.92,4.08,1.39,6.15,1.39c2.13,0,4.06-0.43,5.8-1.3c1.74-0.87,3.27-2.02,4.58-3.46c1.31-1.44,2.4-3.07,3.25-4.91
			c0.86-1.84,1.48-3.72,1.86-5.66h9.95c-0.64,3.29-1.65,6.35-3.05,9.18c-1.4,2.83-3.16,5.3-5.3,7.42c-2.14,2.11-4.64,3.77-7.5,4.97
			c-2.86,1.2-6.06,1.8-9.59,1.8c-4.09,0-7.78-0.7-11.07-2.09c-3.29-1.39-6.09-3.43-8.41-6.09c-2.32-2.67-4.11-5.94-5.37-9.8
			s-1.89-8.27-1.89-13.22c0-3.84,0.59-7.54,1.78-11.09c1.19-3.55,2.92-6.69,5.2-9.43c2.28-2.74,5.07-4.92,8.37-6.55
			c3.3-1.63,7.07-2.44,11.29-2.44c3.59,0,6.8,0.51,9.61,1.53c2.82,1.02,5.29,2.44,7.42,4.25c2.13,1.81,3.92,3.96,5.37,6.44
			c1.45,2.49,2.6,5.21,3.46,8.17h-10.15c-1.46-4.12-3.48-7.19-6.05-9.22c-2.57-2.03-5.79-3.05-9.66-3.05c-2.49,0-4.76,0.57-6.82,1.7
			c-2.06,1.13-3.83,2.67-5.33,4.62c-1.49,1.95-2.65,4.22-3.48,6.82C467.31,473.11,466.89,475.88,466.89,478.8z"/>
		<path d="M548.7,450.71v23.83h26.15v-23.83h9.78v57.81h-9.78v-25.86H548.7v25.86h-9.78v-57.81H548.7z"/>
		<path d="M629.68,450.71l24.82,43.97v-43.97h9.78v57.81h-11.02l-24.95-44.39v44.39h-9.78v-57.81H629.68z"/>
		<path d="M748.54,479.47c0,4.48-0.59,8.59-1.78,12.33c-1.19,3.74-2.92,6.96-5.2,9.66c-2.28,2.69-5.08,4.78-8.39,6.28
			c-3.32,1.49-7.11,2.24-11.4,2.24s-8.08-0.75-11.38-2.26c-3.3-1.5-6.09-3.6-8.37-6.3c-2.28-2.69-4.01-5.91-5.18-9.66
			c-1.17-3.74-1.76-7.85-1.76-12.33c0-4.48,0.59-8.56,1.76-12.27c1.17-3.7,2.9-6.88,5.18-9.53c2.28-2.65,5.07-4.71,8.37-6.18
			c3.3-1.46,7.09-2.2,11.38-2.2s8.08,0.74,11.4,2.22c3.32,1.48,6.11,3.54,8.39,6.19c2.28,2.65,4.01,5.83,5.2,9.53
			S748.54,474.99,748.54,479.47z M738.76,479.43c0-3.51-0.44-6.63-1.33-9.37c-0.88-2.74-2.09-5.04-3.63-6.9
			c-1.53-1.87-3.33-3.29-5.39-4.27c-2.06-0.98-4.27-1.47-6.65-1.47c-2.4,0-4.64,0.49-6.69,1.47c-2.06,0.98-3.84,2.4-5.34,4.27
			c-1.51,1.86-2.7,4.16-3.56,6.9c-0.87,2.74-1.31,5.86-1.31,9.37c0,3.51,0.43,6.64,1.31,9.41c0.87,2.76,2.06,5.11,3.56,7.03
			c1.5,1.92,3.29,3.39,5.34,4.39c2.06,1.01,4.29,1.51,6.69,1.51c2.38,0,4.59-0.5,6.65-1.51c2.06-1.01,3.86-2.47,5.39-4.39
			c1.53-1.92,2.74-4.26,3.63-7.03C738.32,486.07,738.76,482.94,738.76,479.43z"/>
		<path d="M789.16,450.71v49.44h27.81v8.37h-37.59v-57.81H789.16z"/>
		<path d="M897.08,479.47c0,4.48-0.6,8.59-1.78,12.33c-1.19,3.74-2.92,6.96-5.2,9.66c-2.28,2.69-5.08,4.78-8.39,6.28
			c-3.32,1.49-7.12,2.24-11.4,2.24s-8.08-0.75-11.38-2.26c-3.3-1.5-6.09-3.6-8.37-6.3c-2.28-2.69-4.01-5.91-5.18-9.66
			c-1.17-3.74-1.76-7.85-1.76-12.33c0-4.48,0.59-8.56,1.76-12.27c1.18-3.7,2.9-6.88,5.18-9.53c2.28-2.65,5.07-4.71,8.37-6.18
			c3.3-1.46,7.09-2.2,11.38-2.2s8.08,0.74,11.4,2.22c3.32,1.48,6.11,3.54,8.39,6.19c2.28,2.65,4.01,5.83,5.2,9.53
			C896.48,470.9,897.08,474.99,897.08,479.47z M887.29,479.43c0-3.51-0.44-6.63-1.33-9.37c-0.88-2.74-2.09-5.04-3.63-6.9
			c-1.53-1.87-3.33-3.29-5.39-4.27c-2.06-0.98-4.27-1.47-6.65-1.47c-2.4,0-4.63,0.49-6.69,1.47c-2.06,0.98-3.84,2.4-5.34,4.27
			c-1.51,1.86-2.7,4.16-3.56,6.9c-0.87,2.74-1.31,5.86-1.31,9.37c0,3.51,0.43,6.64,1.31,9.41c0.87,2.76,2.06,5.11,3.56,7.03
			c1.5,1.92,3.29,3.39,5.34,4.39c2.06,1.01,4.29,1.51,6.69,1.51c2.38,0,4.59-0.5,6.65-1.51c2.06-1.01,3.86-2.47,5.39-4.39
			c1.53-1.92,2.74-4.26,3.63-7.03C886.85,486.07,887.29,482.94,887.29,479.43z"/>
		<path d="M935.41,479.63c0,3.56,0.46,6.72,1.37,9.47c0.91,2.75,2.15,5.06,3.71,6.94c1.56,1.88,3.38,3.31,5.45,4.29
			c2.07,0.98,4.27,1.47,6.59,1.47c1.91,0,3.77-0.47,5.59-1.41c1.82-0.94,3.48-2.19,4.95-3.75c1.48-1.56,2.72-3.37,3.71-5.41
			c0.99-2.04,1.62-4.17,1.87-6.38h-17.07v-8.21h26.69v31.87h-7.34l-1.16-6.88c-1.11,1.16-2.33,2.25-3.67,3.25
			c-1.34,1.01-2.74,1.89-4.21,2.63c-1.46,0.75-2.98,1.34-4.56,1.78c-1.57,0.44-3.14,0.66-4.68,0.66c-4.14,0-7.88-0.77-11.21-2.3
			c-3.33-1.53-6.17-3.65-8.52-6.36c-2.35-2.71-4.15-5.91-5.41-9.61c-1.26-3.7-1.89-7.72-1.89-12.06c0-2.51,0.27-5.01,0.81-7.5
			c0.54-2.49,1.33-4.86,2.36-7.11c1.03-2.25,2.31-4.34,3.83-6.26c1.52-1.92,3.27-3.59,5.24-5c1.98-1.41,4.16-2.51,6.57-3.32
			c2.4-0.8,5.01-1.2,7.83-1.2c3.59,0,6.8,0.51,9.61,1.53c2.82,1.02,5.29,2.44,7.42,4.25c2.12,1.81,3.92,3.96,5.37,6.44
			c1.45,2.49,2.6,5.21,3.46,8.17h-10.15c-1.47-4.12-3.48-7.19-6.05-9.22c-2.57-2.03-5.79-3.05-9.66-3.05
			c-2.49,0-4.76,0.59-6.82,1.76c-2.06,1.18-3.83,2.78-5.32,4.81c-1.49,2.03-2.65,4.39-3.48,7.09
			C935.83,473.73,935.41,476.59,935.41,479.63z"/>
		<path d="M1031.06,476.32l14.51-25.61h11.15l-20.93,34.94v22.88h-9.82v-22.88l-20.89-34.94h11.11L1031.06,476.32z"/>
	</g>
	<g>
		<path d="M477.22,573.85c0.1,1.48,0.43,2.84,1.01,4.07c0.57,1.23,1.33,2.3,2.28,3.21c0.95,0.91,2.07,1.61,3.36,2.12
			c1.29,0.5,2.71,0.75,4.25,0.75c1.38,0,2.7-0.15,3.97-0.46c1.26-0.31,2.38-0.79,3.34-1.45c0.97-0.66,1.74-1.52,2.31-2.57
			c0.57-1.06,0.86-2.33,0.86-3.83c0-1.22-0.31-2.26-0.93-3.12c-0.62-0.86-1.44-1.6-2.46-2.22c-1.02-0.62-2.17-1.16-3.46-1.61
			c-1.29-0.45-2.6-0.88-3.92-1.27c-1.1-0.32-2.22-0.66-3.33-1.04c-1.12-0.37-2.19-0.8-3.23-1.27c-1.04-0.47-2-1.02-2.9-1.63
			s-1.68-1.33-2.34-2.16c-0.66-0.83-1.18-1.77-1.57-2.83c-0.38-1.05-0.58-2.27-0.58-3.65c0-1.72,0.34-3.23,1.01-4.54
			c0.67-1.31,1.61-2.41,2.83-3.3c1.21-0.89,2.66-1.56,4.35-2.03c1.69-0.46,3.54-0.7,5.55-0.7c1.8,0,3.38,0.18,4.77,0.53
			s2.58,0.84,3.61,1.45c1.03,0.61,1.89,1.33,2.6,2.15c0.71,0.82,1.29,1.68,1.75,2.59c0.45,0.91,0.79,1.84,1.01,2.81
			c0.22,0.97,0.36,1.89,0.41,2.78h-4.5c-0.12-1.38-0.45-2.59-0.99-3.64c-0.54-1.05-1.24-1.92-2.1-2.63
			c-0.86-0.71-1.85-1.24-2.97-1.6c-1.12-0.36-2.32-0.53-3.58-0.53c-1.16,0-2.3,0.12-3.42,0.36c-1.12,0.24-2.11,0.62-2.99,1.14
			c-0.88,0.52-1.59,1.21-2.13,2.06c-0.54,0.85-0.81,1.88-0.81,3.11c0,1.26,0.31,2.33,0.92,3.21c0.61,0.88,1.43,1.63,2.46,2.26
			c1.03,0.63,2.19,1.17,3.51,1.63c1.31,0.45,2.67,0.9,4.07,1.33c1.12,0.34,2.24,0.69,3.34,1.07c1.11,0.37,2.17,0.8,3.2,1.27
			c1.03,0.47,1.98,1.01,2.86,1.61c0.88,0.6,1.64,1.3,2.29,2.1c0.65,0.8,1.16,1.72,1.52,2.75c0.36,1.04,0.55,2.22,0.55,3.57
			c0,2.01-0.37,3.78-1.11,5.31c-0.74,1.53-1.77,2.81-3.09,3.83c-1.32,1.03-2.89,1.8-4.71,2.32c-1.82,0.52-3.8,0.78-5.95,0.78
			c-1.93,0-3.82-0.33-5.65-0.99c-1.84-0.66-3.47-1.6-4.9-2.81c-1.43-1.21-2.59-2.69-3.46-4.43c-0.88-1.74-1.35-3.69-1.41-5.86
			H477.22z"/>
		<path d="M544.46,545.47v27.82c0,1.68,0.31,3.18,0.93,4.51c0.62,1.33,1.43,2.46,2.43,3.39c1,0.93,2.12,1.64,3.37,2.13
			c1.25,0.49,2.52,0.74,3.8,0.74c1.34,0,2.69-0.23,4.04-0.68c1.35-0.45,2.57-1.12,3.64-2.01c1.07-0.89,1.95-2,2.63-3.33
			c0.68-1.33,1.02-2.88,1.02-4.63v-27.94h4.38v27.64c0,1.6-0.21,3.07-0.64,4.42c-0.43,1.35-1.01,2.58-1.76,3.69
			s-1.63,2.08-2.63,2.92c-1.01,0.84-2.09,1.54-3.26,2.12c-1.16,0.57-2.37,1-3.63,1.29c-1.25,0.29-2.5,0.43-3.74,0.43
			c-1.18,0-2.38-0.14-3.58-0.43c-1.2-0.29-2.36-0.71-3.46-1.27c-1.1-0.56-2.14-1.26-3.11-2.1c-0.97-0.84-1.81-1.81-2.52-2.91
			c-0.71-1.1-1.27-2.35-1.69-3.73s-0.62-2.89-0.62-4.53v-27.53H544.46z"/>
		<path d="M611.25,545.47h15.63c2.01,0,3.79,0.35,5.33,1.05c1.54,0.7,2.83,1.61,3.88,2.72c1.05,1.12,1.84,2.37,2.38,3.77
			c0.54,1.4,0.81,2.8,0.81,4.2c0,1.5-0.27,2.96-0.81,4.38c-0.54,1.42-1.34,2.68-2.4,3.79s-2.35,1.99-3.89,2.66
			c-1.54,0.67-3.31,1.01-5.3,1.01h-11.25v17.7h-4.38V545.47z M615.63,565.18h11.25c1.07,0,2.08-0.21,3.05-0.62s1.82-0.99,2.56-1.72
			c0.74-0.73,1.33-1.58,1.76-2.55s0.65-2.01,0.65-3.14c0-1.1-0.2-2.13-0.61-3.06c-0.4-0.94-0.97-1.75-1.69-2.44
			c-0.72-0.69-1.57-1.23-2.55-1.61c-0.98-0.39-2.04-0.58-3.18-0.58h-11.25V565.18z"/>
		<path d="M679.55,545.47h15.63c2.01,0,3.79,0.35,5.33,1.05c1.54,0.7,2.83,1.61,3.88,2.72c1.05,1.12,1.84,2.37,2.38,3.77
			c0.54,1.4,0.81,2.8,0.81,4.2c0,1.5-0.27,2.96-0.81,4.38c-0.54,1.42-1.34,2.68-2.4,3.79s-2.35,1.99-3.89,2.66
			c-1.54,0.67-3.31,1.01-5.3,1.01h-11.25v17.7h-4.38V545.47z M683.93,565.18h11.25c1.07,0,2.08-0.21,3.05-0.62s1.82-0.99,2.56-1.72
			c0.74-0.73,1.33-1.58,1.76-2.55c0.43-0.97,0.65-2.01,0.65-3.14c0-1.1-0.2-2.13-0.61-3.06c-0.4-0.94-0.97-1.75-1.69-2.44
			c-0.72-0.69-1.57-1.23-2.55-1.61c-0.98-0.39-2.04-0.58-3.18-0.58h-11.25V565.18z"/>
		<path d="M775.15,566.07c0,3.18-0.41,6.1-1.23,8.76c-0.82,2.66-2.02,4.96-3.6,6.88c-1.58,1.92-3.52,3.42-5.82,4.48
			c-2.3,1.07-4.93,1.6-7.89,1.6s-5.59-0.53-7.89-1.6c-2.3-1.07-4.23-2.56-5.8-4.48c-1.57-1.92-2.76-4.22-3.58-6.88
			c-0.82-2.66-1.23-5.58-1.23-8.76c0-3.16,0.41-6.06,1.23-8.72c0.82-2.65,2.01-4.94,3.58-6.85c1.57-1.91,3.5-3.4,5.8-4.47
			c2.3-1.07,4.93-1.6,7.89-1.6s5.59,0.53,7.89,1.6c2.3,1.07,4.24,2.56,5.82,4.47s2.78,4.2,3.6,6.85
			C774.74,560.01,775.15,562.91,775.15,566.07z M770.74,566.07c0-2.78-0.36-5.27-1.1-7.47c-0.73-2.2-1.73-4.06-3-5.59
			c-1.27-1.53-2.77-2.69-4.48-3.49c-1.72-0.8-3.56-1.2-5.53-1.2c-1.99,0-3.85,0.4-5.56,1.2c-1.72,0.8-3.21,1.96-4.47,3.49
			c-1.26,1.53-2.25,3.39-2.97,5.59c-0.72,2.2-1.08,4.69-1.08,7.47c0,2.78,0.36,5.28,1.08,7.49c0.72,2.21,1.71,4.08,2.97,5.61
			c1.26,1.53,2.75,2.7,4.47,3.51c1.72,0.81,3.57,1.21,5.56,1.21c1.97,0,3.82-0.4,5.53-1.21c1.72-0.81,3.21-1.98,4.48-3.51
			c1.27-1.53,2.27-3.4,3-5.61C770.38,571.35,770.74,568.85,770.74,566.07z"/>
		<path d="M841.6,557.22c0,1.03-0.12,2.03-0.37,3.02c-0.25,0.99-0.61,1.92-1.09,2.8c-0.48,0.88-1.09,1.68-1.82,2.41
			c-0.73,0.73-1.57,1.36-2.51,1.89c1.07,0.28,1.94,0.7,2.62,1.26c0.68,0.56,1.21,1.21,1.6,1.95c0.38,0.74,0.65,1.54,0.8,2.41
			c0.15,0.87,0.22,1.76,0.22,2.66v6.25c0,0.89,0.12,1.75,0.37,2.59c0.25,0.84,0.56,1.6,0.93,2.29h-4.76
			c-0.2-0.32-0.35-0.68-0.46-1.08c-0.11-0.4-0.19-0.82-0.25-1.26c-0.06-0.43-0.1-0.85-0.12-1.26c-0.02-0.4-0.03-0.75-0.03-1.05
			v-6.57c0-0.79-0.13-1.57-0.4-2.35c-0.27-0.78-0.7-1.48-1.3-2.09c-0.6-0.61-1.39-1.1-2.35-1.48c-0.97-0.37-2.14-0.56-3.52-0.56
			h-12.49v17.7h-4.38v-41.29h16.87c2.01,0,3.79,0.35,5.34,1.05c1.55,0.7,2.85,1.61,3.91,2.72c1.06,1.12,1.85,2.37,2.4,3.77
			C841.33,554.42,841.6,555.82,841.6,557.22z M816.65,565.18h12.49c1.09,0,2.11-0.21,3.08-0.62s1.82-0.99,2.56-1.72
			c0.74-0.73,1.33-1.58,1.76-2.55c0.43-0.97,0.65-2.01,0.65-3.14c0-1.1-0.2-2.13-0.61-3.06c-0.41-0.94-0.97-1.75-1.69-2.44
			c-0.72-0.69-1.57-1.23-2.56-1.61c-0.99-0.39-2.05-0.58-3.2-0.58h-12.49V565.18z"/>
		<path d="M909.14,545.47v4h-13.68v37.29h-4.38v-37.29h-13.64v-4H909.14z"/>
	</g>
	<path class="st1" d="M531.01,237.31c0,0-5.55-14.97,54.09-10.98c0,8.36-6.28,12.05-6.28,12.05s-47.63-7.19-47.82,12.39V237.31z"/>
	<path class="st1" d="M476.31,281.6c0,0-3.6-10.44,55.47-10.44c-3.57,7.02-2.86,4.65-5.62,10.62c-28.87,0-49.87,3.98-49.85,13.29
		V281.6z"/>
	<linearGradient id="SVGID_1_" gradientUnits="userSpaceOnUse" x1="514.4987" y1="261.8258" x2="759.0618" y2="261.8258">
		<stop  offset="0" style="stop-color:#5AB9E4"/>
		<stop  offset="1" style="stop-color:#6B2EFB"/>
	</linearGradient>
	<path class="st2" d="M746.85,233.1c-13.06,0-24.09,8.76-27.56,20.71H570.64c-26.1-0.54-39.63-9.02-39.63-16.5
		c0,13.87,0,16.5,0,16.5s-0.66,14.05,36.85,15.83v0.19h151.43c3.48,11.95,14.51,20.71,27.56,20.71c15.84,0,28.72-12.89,28.72-28.72
		C775.57,245.99,762.69,233.1,746.85,233.1z M746.85,274.53c-7,0-12.7-5.7-12.7-12.7c0-7,5.7-12.7,12.7-12.7c7,0,12.7,5.7,12.7,12.7
		C759.55,268.83,753.85,274.53,746.85,274.53z"/>
	<linearGradient id="SVGID_2_" gradientUnits="userSpaceOnUse" x1="459.7957" y1="306.1495" x2="704.3608" y2="306.1495">
		<stop  offset="0" style="stop-color:#5AB9E4"/>
		<stop  offset="1" style="stop-color:#6B2EFB"/>
	</linearGradient>
	<path class="st3" d="M692.15,277.43c-13.06,0-24.09,8.76-27.56,20.71H522.18c-29.63,0.59-45.87-8.57-45.87-16.54
		c0,13.87,0,16.5,0,16.5s-1.16,15.1,41.1,15.98l0.02,0.08h147.15c3.48,11.95,14.51,20.71,27.56,20.71
		c15.84,0,28.72-12.89,28.72-28.72C720.87,290.31,707.99,277.43,692.15,277.43z M692.15,318.85c-7,0-12.7-5.7-12.7-12.7
		c0-7,5.7-12.7,12.7-12.7c7,0,12.7,5.7,12.7,12.7C704.85,313.15,699.15,318.85,692.15,318.85z"/>
	<path class="st0" d="M607.13,199.66c-11.29,14.04-21.08,30.85-28.97,49.87c-9.05-2.15-17.76-4.53-25.72-7.17
		C567.73,224.84,586.24,210.29,607.13,199.66z"/>
	<g>
		<path d="M521.67,374.99v4.2h-23.64v14.68h20.53v4.2h-20.53v20.31h-4.6v-43.4H521.67z"/>
		<path d="M568.26,374.99v29.24c0,1.76,0.33,3.34,0.98,4.74c0.65,1.4,1.5,2.59,2.55,3.56c1.05,0.98,2.23,1.72,3.55,2.24
			c1.32,0.52,2.65,0.78,4,0.78c1.41,0,2.83-0.24,4.25-0.72c1.42-0.48,2.7-1.18,3.83-2.12c1.13-0.93,2.05-2.1,2.77-3.5
			c0.72-1.4,1.07-3.02,1.07-4.87v-29.37h4.6v29.06c0,1.68-0.22,3.23-0.67,4.65c-0.45,1.42-1.06,2.71-1.85,3.87
			c-0.79,1.16-1.71,2.18-2.77,3.06c-1.06,0.88-2.2,1.62-3.42,2.22c-1.22,0.6-2.49,1.05-3.81,1.35c-1.32,0.3-2.63,0.45-3.94,0.45
			c-1.24,0-2.5-0.15-3.76-0.45c-1.27-0.3-2.48-0.75-3.64-1.34c-1.16-0.59-2.25-1.33-3.27-2.21c-1.02-0.88-1.9-1.9-2.64-3.06
			c-0.75-1.16-1.34-2.47-1.77-3.92c-0.44-1.45-0.65-3.04-0.65-4.76v-28.93H568.26z"/>
		<path d="M666.74,374.99v4.2h-14.37v39.2h-4.6v-39.2h-14.34v-4.2H666.74z"/>
		<path d="M711.09,374.99v29.24c0,1.76,0.33,3.34,0.98,4.74c0.65,1.4,1.5,2.59,2.55,3.56c1.05,0.98,2.23,1.72,3.55,2.24
			c1.32,0.52,2.65,0.78,4,0.78c1.41,0,2.83-0.24,4.25-0.72c1.42-0.48,2.7-1.18,3.83-2.12c1.13-0.93,2.05-2.1,2.77-3.5
			c0.72-1.4,1.07-3.02,1.07-4.87v-29.37h4.6v29.06c0,1.68-0.22,3.23-0.67,4.65c-0.45,1.42-1.06,2.71-1.85,3.87
			c-0.79,1.16-1.71,2.18-2.77,3.06c-1.06,0.88-2.2,1.62-3.42,2.22c-1.22,0.6-2.49,1.05-3.81,1.35c-1.32,0.3-2.63,0.45-3.94,0.45
			c-1.24,0-2.5-0.15-3.76-0.45c-1.27-0.3-2.48-0.75-3.64-1.34c-1.16-0.59-2.25-1.33-3.27-2.21c-1.02-0.88-1.9-1.9-2.64-3.06
			c-0.75-1.16-1.34-2.47-1.77-3.92c-0.44-1.45-0.65-3.04-0.65-4.76v-28.93H711.09z"/>
		<path d="M812.18,387.34c0,1.08-0.13,2.14-0.39,3.17c-0.26,1.04-0.64,2.02-1.15,2.94c-0.51,0.92-1.15,1.77-1.91,2.54
			c-0.77,0.77-1.65,1.43-2.64,1.99c1.12,0.29,2.04,0.73,2.75,1.32c0.72,0.59,1.28,1.28,1.68,2.05c0.4,0.78,0.68,1.62,0.84,2.54
			c0.16,0.91,0.23,1.85,0.23,2.8v6.56c0,0.93,0.13,1.84,0.39,2.72c0.26,0.88,0.59,1.69,0.98,2.41h-5.01
			c-0.21-0.33-0.37-0.71-0.48-1.14c-0.11-0.42-0.2-0.87-0.26-1.32c-0.06-0.46-0.1-0.9-0.12-1.32c-0.02-0.43-0.03-0.79-0.03-1.1
			v-6.91c0-0.83-0.14-1.65-0.42-2.47c-0.28-0.82-0.74-1.55-1.37-2.19c-0.63-0.64-1.46-1.16-2.47-1.55c-1.02-0.39-2.25-0.59-3.7-0.59
			h-13.13v18.6h-4.6v-43.4h17.73c2.12,0,3.99,0.37,5.62,1.1s3,1.69,4.11,2.86c1.11,1.17,1.95,2.49,2.52,3.97
			C811.9,384.39,812.18,385.87,812.18,387.34z M785.96,395.71h13.13c1.14,0,2.22-0.22,3.24-0.65c1.02-0.44,1.91-1.04,2.69-1.8
			c0.78-0.77,1.39-1.66,1.85-2.68c0.46-1.02,0.68-2.12,0.68-3.3c0-1.16-0.21-2.23-0.64-3.22c-0.43-0.99-1.02-1.84-1.77-2.57
			c-0.76-0.73-1.65-1.29-2.69-1.7c-1.04-0.4-2.16-0.61-3.36-0.61h-13.13V395.71z"/>
		<path d="M882.41,374.99v4.2h-24.33v14.68h22.9v4.2h-22.9v16.12h25.42v4.2h-30.02v-43.4H882.41z"/>
	</g>
</g>
</svg>
