<?xml version="1.0" encoding="utf-8"?>
<!-- Generator: Adobe Illustrator 24.0.0, SVG Export Plug-In . SVG Version: 6.00 Build 0)  -->
<svg version="1.1" id="Layer_1" xmlns="http://www.w3.org/2000/svg" xmlns:xlink="http://www.w3.org/1999/xlink" x="0px" y="0px"
	 viewBox="0 0 1366 768" style="enable-background:new 0 0 1366 768;" xml:space="preserve">
<style type="text/css">
	.st0{fill:#00E1CD;}
	.st1{fill:#4085B8;}
	.st2{fill:url(#SVGID_1_);}
	.st3{fill:url(#SVGID_2_);}
</style>
<g>
	<path class="st0" d="M945.2,141.4c30.3,39.4,48.8,86.1,52.3,136.4h-85.1c-1.6-43.6-9.8-84.8-23.2-121.9
		C909.1,151.7,927.9,146.8,945.2,141.4z"/>
	<path class="st0" d="M920.8,113.8c-13.8,4-29,7.6-44.7,10.9c-13.7-28.8-30.6-54.3-50.3-75.6C862.2,65.2,894.3,87.3,920.8,113.8z"/>
	<path class="st0" d="M782.1,277.8c-0.5-31.3-2.6-68.3-7.1-105.6c27.5-2.2,53.5-5.4,78.2-9.4c12.7,34.7,20.3,73.6,21.9,115
		L782.1,277.8L782.1,277.8z"/>
	<path class="st0" d="M839.7,131.5c-21.7,3.5-44.9,6.2-69.4,8.3c-7-43.8-17.6-85.1-32.9-114.7C779.2,42.9,815,81,839.7,131.5z"/>
	<path class="st0" d="M622.2,277.8c0.5-38.5,2.9-73.1,6.5-103.3c17.9,0.9,36,1.4,54.7,1.4c18.7,0,36.8-0.5,54.7-1.4
		c3.6,30.2,6,64.8,6.6,103.3H622.2z"/>
	<path class="st0" d="M674.4,19.4c3,0,6-0.4,9.1-0.4c3,0,6,0.3,9.1,0.4c12.8,14.2,29.9,55.4,41,122.7c-16.4,0.8-32.9,1.3-50.1,1.3
		c-17.2,0-33.8-0.5-50.1-1.2C644.5,74.8,661.6,33.6,674.4,19.4z"/>
	<path class="st0" d="M629.5,25c-15.3,29.6-26,70.9-32.9,114.7c-24.4-2-47.6-4.8-69.4-8.3C551.9,81,587.8,42.9,629.5,25z"/>
	<path class="st0" d="M584.9,277.8h-93c1.6-41.4,9.3-80.4,21.9-115c24.7,4,50.7,7.2,78.2,9.4C587.5,209.6,585.4,246.5,584.9,277.8z"
		/>
	<path class="st0" d="M421.7,141.4c17.4,5.4,36.1,10.3,56.2,14.6c-13.4,37.1-21.6,78.2-23.3,121.8h-85.2
		C372.9,227.6,391.4,180.8,421.7,141.4z"/>
	<g>
		<path d="M104.5,429.6v12.5H72.7v75.1h-17v-75.1H24v-12.5H104.5z"/>
		<path d="M227.5,429.6v12.5h-53.8v23.7h50.5v12.6h-50.5v26.2h56.2v12.7h-73.1v-87.6H227.5z"/>
		<path d="M297.7,472.1c0,6,0.9,11.2,2.6,15.6c1.7,4.4,3.9,8,6.7,10.9c2.8,2.9,5.9,5,9.5,6.4c3.5,1.4,7.1,2.1,10.7,2.1
			c3.7,0,7-0.7,10.1-2c3-1.3,5.7-3.1,7.9-5.2s4.2-4.7,5.6-7.4c1.5-2.8,2.6-5.6,3.2-8.6h17.3c-1.1,5-2.9,9.6-5.3,13.9
			c-2.4,4.3-5.5,8-9.2,11.2c-3.7,3.2-8,5.7-13,7.5s-10.5,2.7-16.6,2.7c-7.1,0-13.5-1.1-19.2-3.2c-5.7-2.1-10.6-5.2-14.6-9.2
			c-4-4-7.1-9-9.3-14.9c-2.2-5.9-3.3-12.5-3.3-20c0-5.8,1-11.4,3.1-16.8s5.1-10.1,9-14.3c4-4.2,8.8-7.5,14.5-9.9
			c5.7-2.5,12.3-3.7,19.6-3.7c6.2,0,11.8,0.8,16.7,2.3c4.9,1.5,9.2,3.7,12.9,6.4s6.8,6,9.3,9.8c2.5,3.8,4.5,7.9,6,12.4h-17.6
			c-2.5-6.2-6-10.9-10.5-14c-4.5-3.1-10-4.6-16.8-4.6c-4.3,0-8.3,0.9-11.8,2.6c-3.6,1.7-6.6,4-9.2,7c-2.6,3-4.6,6.4-6,10.3
			C298.4,463.5,297.7,467.7,297.7,472.1z"/>
		<path d="M439.6,429.6v36.1H485v-36.1h17v87.6h-17V478h-45.4v39.2h-17v-87.6L439.6,429.6L439.6,429.6z"/>
		<path d="M580.1,429.6l43.1,66.6v-66.6h17v87.6H621l-43.3-67.3v67.3h-17v-87.6L580.1,429.6L580.1,429.6z"/>
		<path d="M786.3,473.2c0,6.8-1,13-3.1,18.7s-5.1,10.5-9,14.6c-4,4.1-8.8,7.2-14.6,9.5c-5.8,2.3-12.3,3.4-19.8,3.4s-14-1.1-19.7-3.4
			c-5.7-2.3-10.6-5.5-14.5-9.5c-4-4.1-7-9-9-14.6c-2-5.7-3.1-11.9-3.1-18.7c0-6.8,1-13,3.1-18.6c2-5.6,5-10.4,9-14.4
			c4-4,8.8-7.1,14.5-9.4c5.7-2.2,12.3-3.3,19.7-3.3s14,1.1,19.8,3.4c5.8,2.2,10.6,5.4,14.6,9.4c4,4,7,8.8,9,14.4
			C785.3,460.2,786.3,466.4,786.3,473.2z M769.3,473.1c0-5.3-0.8-10-2.3-14.2c-1.5-4.2-3.6-7.6-6.3-10.5c-2.7-2.8-5.8-5-9.4-6.5
			c-3.6-1.5-7.4-2.2-11.5-2.2c-4.2,0-8,0.7-11.6,2.2c-3.6,1.5-6.7,3.6-9.3,6.5c-2.6,2.8-4.7,6.3-6.2,10.5c-1.5,4.2-2.3,8.9-2.3,14.2
			c0,5.3,0.7,10.1,2.3,14.3c1.5,4.2,3.6,7.7,6.2,10.7c2.6,2.9,5.7,5.1,9.3,6.7c3.6,1.5,7.4,2.3,11.6,2.3c4.1,0,8-0.8,11.5-2.3
			s6.7-3.7,9.4-6.7c2.7-2.9,4.8-6.5,6.3-10.7S769.3,478.4,769.3,473.1z"/>
		<path d="M856.8,429.6v74.9H905v12.7h-65.2v-87.6H856.8z"/>
		<path d="M1044,473.2c0,6.8-1,13-3.1,18.7c-2.1,5.7-5.1,10.5-9,14.6c-4,4.1-8.8,7.2-14.6,9.5c-5.8,2.3-12.4,3.4-19.8,3.4
			c-7.4,0-14-1.1-19.7-3.4c-5.7-2.3-10.6-5.5-14.5-9.5c-4-4.1-7-9-9-14.6c-2-5.7-3.1-11.9-3.1-18.7c0-6.8,1-13,3.1-18.6
			c2-5.6,5-10.4,9-14.4c4-4,8.8-7.1,14.5-9.4c5.7-2.2,12.3-3.3,19.7-3.3s14,1.1,19.8,3.4c5.8,2.2,10.6,5.4,14.6,9.4
			c4,4,7,8.8,9,14.4C1042.9,460.2,1044,466.4,1044,473.2z M1027,473.1c0-5.3-0.8-10-2.3-14.2c-1.5-4.2-3.6-7.6-6.3-10.5
			c-2.7-2.8-5.8-5-9.4-6.5c-3.6-1.5-7.4-2.2-11.5-2.2c-4.2,0-8,0.7-11.6,2.2c-3.6,1.5-6.7,3.6-9.3,6.5c-2.6,2.8-4.7,6.3-6.2,10.5
			c-1.5,4.2-2.3,8.9-2.3,14.2c0,5.3,0.7,10.1,2.3,14.3c1.5,4.2,3.6,7.7,6.2,10.7c2.6,2.9,5.7,5.1,9.3,6.7c3.6,1.5,7.4,2.3,11.6,2.3
			c4.1,0,8-0.8,11.5-2.3s6.7-3.7,9.4-6.7c2.7-2.9,4.8-6.5,6.3-10.7S1027,478.4,1027,473.1z"/>
		<path d="M1110.5,473.4c0,5.4,0.8,10.2,2.4,14.4c1.6,4.2,3.7,7.7,6.4,10.5s5.9,5,9.5,6.5c3.6,1.5,7.4,2.2,11.4,2.2
			c3.3,0,6.5-0.7,9.7-2.1c3.2-1.4,6-3.3,8.6-5.7c2.6-2.4,4.7-5.1,6.4-8.2c1.7-3.1,2.8-6.3,3.2-9.7h-29.6v-12.4h46.3v48.3h-12.7
			l-2-10.4c-1.9,1.8-4,3.4-6.4,4.9c-2.3,1.5-4.8,2.9-7.3,4c-2.5,1.1-5.2,2-7.9,2.7c-2.7,0.7-5.4,1-8.1,1c-7.2,0-13.7-1.2-19.4-3.5
			c-5.8-2.3-10.7-5.5-14.8-9.6c-4.1-4.1-7.2-9-9.4-14.6c-2.2-5.6-3.3-11.7-3.3-18.3c0-3.8,0.5-7.6,1.4-11.4
			c0.9-3.8,2.3-7.4,4.1-10.8c1.8-3.4,4-6.6,6.6-9.5c2.6-2.9,5.7-5.4,9.1-7.6c3.4-2.1,7.2-3.8,11.4-5c4.2-1.2,8.7-1.8,13.6-1.8
			c6.2,0,11.8,0.8,16.7,2.3c4.9,1.5,9.2,3.7,12.9,6.4c3.7,2.7,6.8,6,9.3,9.8c2.5,3.8,4.5,7.9,6,12.4h-17.6c-2.6-6.2-6-10.9-10.5-14
			s-10-4.6-16.8-4.6c-4.3,0-8.3,0.9-11.8,2.7c-3.6,1.8-6.6,4.2-9.2,7.3s-4.6,6.7-6,10.7C1111.2,464.5,1110.5,468.8,1110.5,473.4z"/>
		<path d="M1276.4,468.4l25.2-38.8h19.3l-36.3,53v34.7h-17v-34.7l-36.2-53h19.3L1276.4,468.4z"/>
	</g>
	<g>
		<path d="M315.6,616.2c0.2,2.2,0.7,4.3,1.8,6.2c1,1.9,2.3,3.5,4,4.9c1.6,1.4,3.6,2.4,5.8,3.2c2.2,0.8,4.7,1.1,7.4,1.1
			c2.4,0,4.7-0.2,6.9-0.7c2.2-0.5,4.1-1.2,5.8-2.2c1.7-1,3-2.3,4-3.9c1-1.6,1.5-3.5,1.5-5.8c0-1.8-0.5-3.4-1.6-4.7
			c-1.1-1.3-2.5-2.4-4.3-3.4c-1.8-0.9-3.8-1.8-6-2.4c-2.2-0.7-4.5-1.3-6.8-1.9c-1.9-0.5-3.9-1-5.8-1.6c-1.9-0.6-3.8-1.2-5.6-1.9
			c-1.8-0.7-3.5-1.5-5-2.5s-2.9-2-4.1-3.3c-1.1-1.3-2-2.7-2.7-4.3c-0.7-1.6-1-3.4-1-5.5c0-2.6,0.6-4.9,1.8-6.9c1.2-2,2.8-3.7,4.9-5
			c2.1-1.3,4.6-2.4,7.5-3.1c2.9-0.7,6.1-1.1,9.6-1.1c3.1,0,5.9,0.3,8.3,0.8c2.4,0.5,4.5,1.3,6.3,2.2s3.3,2,4.5,3.3
			c1.2,1.2,2.2,2.5,3,3.9c0.8,1.4,1.4,2.8,1.8,4.3c0.4,1.5,0.6,2.9,0.7,4.2h-7.8c-0.2-2.1-0.8-3.9-1.7-5.5c-0.9-1.6-2.2-2.9-3.6-4
			c-1.5-1.1-3.2-1.9-5.2-2.4c-1.9-0.5-4-0.8-6.2-0.8c-2,0-4,0.2-5.9,0.5c-1.9,0.4-3.7,0.9-5.2,1.7c-1.5,0.8-2.8,1.8-3.7,3.1
			c-0.9,1.3-1.4,2.8-1.4,4.7c0,1.9,0.5,3.5,1.6,4.9c1.1,1.3,2.5,2.5,4.3,3.4s3.8,1.8,6.1,2.5c2.3,0.7,4.6,1.4,7.1,2
			c1.9,0.5,3.9,1,5.8,1.6c1.9,0.6,3.8,1.2,5.6,1.9c1.8,0.7,3.4,1.5,5,2.4c1.5,0.9,2.8,2,4,3.2c1.1,1.2,2,2.6,2.6,4.2
			c0.6,1.6,1,3.4,1,5.4c0,3-0.6,5.7-1.9,8c-1.3,2.3-3.1,4.3-5.4,5.8c-2.3,1.6-5,2.7-8.2,3.5c-3.2,0.8-6.6,1.2-10.3,1.2
			c-3.3,0-6.6-0.5-9.8-1.5c-3.2-1-6-2.4-8.5-4.3c-2.5-1.8-4.5-4.1-6-6.7c-1.5-2.6-2.3-5.6-2.4-8.9L315.6,616.2L315.6,616.2z"/>
		<path d="M432.3,573.2v42.2c0,2.5,0.5,4.8,1.6,6.8s2.5,3.7,4.2,5.1s3.7,2.5,5.8,3.2c2.2,0.7,4.4,1.1,6.6,1.1c2.3,0,4.7-0.3,7-1
			c2.3-0.7,4.5-1.7,6.3-3c1.9-1.3,3.4-3,4.6-5c1.2-2,1.8-4.4,1.8-7v-42.3h7.6v41.9c0,2.4-0.4,4.7-1.1,6.7s-1.8,3.9-3.1,5.6
			c-1.3,1.7-2.8,3.2-4.6,4.4c-1.8,1.3-3.6,2.3-5.7,3.2c-2,0.9-4.1,1.5-6.3,2c-2.2,0.4-4.3,0.7-6.5,0.7c-2,0-4.1-0.2-6.2-0.7
			c-2.1-0.4-4.1-1.1-6-1.9c-1.9-0.8-3.7-1.9-5.4-3.2c-1.7-1.3-3.1-2.7-4.4-4.4c-1.2-1.7-2.2-3.6-2.9-5.7c-0.7-2.1-1.1-4.4-1.1-6.9
			v-41.7L432.3,573.2L432.3,573.2z"/>
		<path d="M548.1,573.2h27.1c3.5,0,6.6,0.5,9.2,1.6c2.7,1.1,4.9,2.4,6.7,4.1c1.8,1.7,3.2,3.6,4.1,5.7c0.9,2.1,1.4,4.2,1.4,6.4
			c0,2.3-0.5,4.5-1.4,6.6c-0.9,2.2-2.3,4.1-4.2,5.7c-1.8,1.7-4.1,3-6.7,4c-2.7,1-5.7,1.5-9.2,1.5h-19.5v26.8h-7.6V573.2z
			 M555.7,603.1h19.5c1.9,0,3.6-0.3,5.3-0.9c1.7-0.6,3.2-1.5,4.4-2.6c1.3-1.1,2.3-2.4,3.1-3.9c0.7-1.5,1.1-3,1.1-4.8
			c0-1.7-0.3-3.2-1.1-4.6c-0.7-1.4-1.7-2.7-2.9-3.7c-1.2-1-2.7-1.9-4.4-2.4c-1.7-0.6-3.5-0.9-5.5-0.9h-19.5L555.7,603.1L555.7,603.1
			z"/>
		<path d="M666.6,573.2h27.1c3.5,0,6.6,0.5,9.2,1.6c2.7,1.1,4.9,2.4,6.7,4.1c1.8,1.7,3.2,3.6,4.1,5.7c0.9,2.1,1.4,4.2,1.4,6.4
			c0,2.3-0.5,4.5-1.4,6.6c-0.9,2.2-2.3,4.1-4.2,5.7c-1.8,1.7-4.1,3-6.7,4c-2.7,1-5.7,1.5-9.2,1.5h-19.5v26.8h-7.6V573.2z
			 M674.2,603.1h19.5c1.9,0,3.6-0.3,5.3-0.9c1.7-0.6,3.2-1.5,4.4-2.6c1.3-1.1,2.3-2.4,3.1-3.9c0.7-1.5,1.1-3,1.1-4.8
			c0-1.7-0.3-3.2-1.1-4.6c-0.7-1.4-1.7-2.7-2.9-3.7c-1.2-1-2.7-1.9-4.4-2.4c-1.7-0.6-3.5-0.9-5.5-0.9h-19.5L674.2,603.1L674.2,603.1
			z"/>
		<path d="M832.5,604.4c0,4.8-0.7,9.2-2.1,13.3c-1.4,4-3.5,7.5-6.2,10.4c-2.7,2.9-6.1,5.2-10.1,6.8c-4,1.6-8.6,2.4-13.7,2.4
			c-5.1,0-9.7-0.8-13.7-2.4c-4-1.6-7.3-3.9-10.1-6.8c-2.7-2.9-4.8-6.4-6.2-10.4c-1.4-4-2.1-8.5-2.1-13.3c0-4.8,0.7-9.2,2.1-13.2
			c1.4-4,3.5-7.5,6.2-10.4c2.7-2.9,6.1-5.2,10.1-6.8c4-1.6,8.6-2.4,13.7-2.4c5.1,0,9.7,0.8,13.7,2.4c4,1.6,7.4,3.9,10.1,6.8
			c2.7,2.9,4.8,6.4,6.2,10.4C831.7,595.2,832.5,599.6,832.5,604.4z M824.8,604.4c0-4.2-0.6-8-1.9-11.3c-1.3-3.3-3-6.2-5.2-8.5
			c-2.2-2.3-4.8-4.1-7.8-5.3c-3-1.2-6.2-1.8-9.6-1.8c-3.5,0-6.7,0.6-9.6,1.8c-3,1.2-5.6,3-7.8,5.3c-2.2,2.3-3.9,5.1-5.2,8.5
			s-1.9,7.1-1.9,11.3c0,4.2,0.6,8,1.9,11.4c1.2,3.3,3,6.2,5.2,8.5c2.2,2.3,4.8,4.1,7.8,5.3c3,1.2,6.2,1.8,9.6,1.8
			c3.4,0,6.6-0.6,9.6-1.8c3-1.2,5.6-3,7.8-5.3c2.2-2.3,3.9-5.2,5.2-8.5C824.2,612.4,824.8,608.6,824.8,604.4z"/>
		<path d="M947.7,591c0,1.6-0.2,3.1-0.6,4.6c-0.4,1.5-1.1,2.9-1.9,4.2c-0.8,1.3-1.9,2.5-3.2,3.7c-1.3,1.1-2.7,2.1-4.4,2.9
			c1.9,0.4,3.4,1.1,4.5,1.9c1.2,0.8,2.1,1.8,2.8,3c0.7,1.1,1.1,2.3,1.4,3.7c0.3,1.3,0.4,2.7,0.4,4v9.5c0,1.3,0.2,2.7,0.6,3.9
			c0.4,1.3,1,2.4,1.6,3.5h-8.3c-0.3-0.5-0.6-1-0.8-1.6c-0.2-0.6-0.3-1.2-0.4-1.9c-0.1-0.7-0.2-1.3-0.2-1.9c0-0.6-0.1-1.1-0.1-1.6
			v-10c0-1.2-0.2-2.4-0.7-3.6c-0.5-1.2-1.2-2.2-2.3-3.2c-1-0.9-2.4-1.7-4.1-2.2c-1.7-0.6-3.7-0.8-6.1-0.8h-21.7v26.8h-7.6v-62.6
			h29.3c3.5,0,6.6,0.5,9.3,1.6c2.7,1.1,4.9,2.4,6.8,4.1c1.8,1.7,3.2,3.6,4.2,5.7C947.3,586.8,947.7,588.9,947.7,591z M904.4,603.1
			h21.7c1.9,0,3.7-0.3,5.3-0.9s3.2-1.5,4.4-2.6c1.3-1.1,2.3-2.4,3.1-3.9c0.7-1.5,1.1-3,1.1-4.8c0-1.7-0.3-3.2-1.1-4.6
			c-0.7-1.4-1.7-2.7-2.9-3.7c-1.2-1-2.7-1.9-4.4-2.4c-1.7-0.6-3.6-0.9-5.6-0.9h-21.7L904.4,603.1L904.4,603.1z"/>
		<path d="M1064.9,573.2v6.1h-23.7v56.5h-7.6v-56.5h-23.7v-6.1H1064.9z"/>
	</g>
	<path class="st1" d="M408.9,106.1c0,0-9.6-22.7,93.8-16.6c0,12.7-10.9,18.3-10.9,18.3s-82.6-10.9-83,18.8L408.9,106.1L408.9,106.1z
		"/>
	<path class="st1" d="M314,173.3c0,0-6.2-15.8,96.2-15.8c-6.2,10.6-5,7-9.7,16.1c-50.1,0-86.5,6-86.5,20.1L314,173.3L314,173.3z"/>
	
		<linearGradient id="SVGID_1_" gradientUnits="userSpaceOnUse" x1="380.2941" y1="624.7061" x2="804.541" y2="624.7061" gradientTransform="matrix(1 0 0 -1 0 768)">
		<stop  offset="0" style="stop-color:#5AB9E4"/>
		<stop  offset="1" style="stop-color:#6B2EFB"/>
	</linearGradient>
	<path class="st2" d="M783.4,99.8c-22.7,0-41.8,13.3-47.8,31.4H477.7c-45.3-0.8-68.7-13.7-68.7-25c0,21,0,25,0,25s-1.1,21.3,63.9,24
		v0.3h262.7c6,18.1,25.2,31.4,47.8,31.4c27.5,0,49.8-19.5,49.8-43.5C833.2,119.3,810.8,99.8,783.4,99.8z M783.4,162.6
		c-12.1,0-22-8.6-22-19.2s9.9-19.2,22-19.2c12.1,0,22,8.6,22,19.2S795.5,162.6,783.4,162.6z"/>
	
		<linearGradient id="SVGID_2_" gradientUnits="userSpaceOnUse" x1="285.399" y1="557.5198" x2="709.6327" y2="557.5198" gradientTransform="matrix(1 0 0 -1 0 768)">
		<stop  offset="0" style="stop-color:#5AB9E4"/>
		<stop  offset="1" style="stop-color:#6B2EFB"/>
	</linearGradient>
	<path class="st3" d="M688.5,167c-22.7,0-41.8,13.3-47.8,31.4h-247c-51.4,0.9-79.6-13-79.6-25.1c0,21,0,25,0,25s-2,22.9,71.3,24.2
		l0,0.1h255.3c6,18.1,25.2,31.4,47.8,31.4c27.5,0,49.8-19.5,49.8-43.5C738.3,186.5,715.9,167,688.5,167z M688.5,229.7
		c-12.1,0-22-8.6-22-19.2s9.9-19.2,22-19.2s22,8.6,22,19.2C710.5,221.1,700.6,229.7,688.5,229.7z"/>
	<path class="st0" d="M541,49.1c-19.6,21.3-36.6,46.8-50.3,75.6c-15.7-3.3-30.8-6.9-44.6-10.9C472.6,87.2,504.7,65.2,541,49.1z"/>
	<g>
		<path d="M392.7,314.8v6.4h-41v22.2h35.6v6.4h-35.6v30.8h-8v-65.8L392.7,314.8L392.7,314.8z"/>
		<path d="M473.6,314.8v44.3c0,2.7,0.6,5.1,1.7,7.2c1.1,2.1,2.6,3.9,4.4,5.4c1.8,1.5,3.9,2.6,6.2,3.4c2.3,0.8,4.6,1.2,6.9,1.2
			c2.4,0,4.9-0.4,7.4-1.1s4.7-1.8,6.6-3.2c2-1.4,3.6-3.2,4.8-5.3c1.2-2.1,1.9-4.6,1.9-7.4v-44.5h8v44c0,2.5-0.4,4.9-1.2,7
			c-0.8,2.2-1.8,4.1-3.2,5.9c-1.4,1.8-3,3.3-4.8,4.6c-1.8,1.3-3.8,2.5-5.9,3.4c-2.1,0.9-4.3,1.6-6.6,2c-2.3,0.5-4.6,0.7-6.8,0.7
			c-2.2,0-4.3-0.2-6.5-0.7c-2.2-0.5-4.3-1.1-6.3-2c-2-0.9-3.9-2-5.7-3.3c-1.8-1.3-3.3-2.9-4.6-4.6c-1.3-1.8-2.3-3.7-3.1-5.9
			c-0.8-2.2-1.1-4.6-1.1-7.2v-43.8L473.6,314.8L473.6,314.8z"/>
		<path d="M644.4,314.8v6.4h-24.9v59.4h-8v-59.4h-24.9v-6.4H644.4z"/>
		<path d="M721.3,314.8v44.3c0,2.7,0.6,5.1,1.7,7.2c1.1,2.1,2.6,3.9,4.4,5.4c1.8,1.5,3.9,2.6,6.2,3.4c2.3,0.8,4.6,1.2,6.9,1.2
			c2.4,0,4.9-0.4,7.4-1.1c2.5-0.7,4.7-1.8,6.6-3.2c2-1.4,3.6-3.2,4.8-5.3c1.2-2.1,1.9-4.6,1.9-7.4v-44.5h8v44c0,2.5-0.4,4.9-1.2,7
			c-0.8,2.2-1.8,4.1-3.2,5.9c-1.4,1.8-3,3.3-4.8,4.6c-1.8,1.3-3.8,2.5-5.9,3.4s-4.3,1.6-6.6,2c-2.3,0.5-4.6,0.7-6.8,0.7
			c-2.2,0-4.3-0.2-6.5-0.7c-2.2-0.5-4.3-1.1-6.3-2c-2-0.9-3.9-2-5.7-3.3c-1.8-1.3-3.3-2.9-4.6-4.6c-1.3-1.8-2.3-3.7-3.1-5.9
			c-0.8-2.2-1.1-4.6-1.1-7.2v-43.8L721.3,314.8L721.3,314.8z"/>
		<path d="M896.7,333.5c0,1.6-0.2,3.2-0.7,4.8c-0.5,1.6-1.1,3.1-2,4.5c-0.9,1.4-2,2.7-3.3,3.8c-1.3,1.2-2.9,2.2-4.6,3
			c1.9,0.4,3.5,1.1,4.8,2c1.2,0.9,2.2,1.9,2.9,3.1c0.7,1.2,1.2,2.5,1.5,3.8c0.3,1.4,0.4,2.8,0.4,4.2v9.9c0,1.4,0.2,2.8,0.7,4.1
			c0.5,1.3,1,2.6,1.7,3.7h-8.7c-0.4-0.5-0.6-1.1-0.8-1.7c-0.2-0.6-0.3-1.3-0.5-2c-0.1-0.7-0.2-1.4-0.2-2c0-0.7-0.1-1.2-0.1-1.7
			v-10.5c0-1.3-0.2-2.5-0.7-3.7c-0.5-1.2-1.3-2.3-2.4-3.3c-1.1-1-2.5-1.8-4.3-2.3c-1.8-0.6-3.9-0.9-6.4-0.9h-22.8v28.2h-8v-65.8H874
			c3.7,0,6.9,0.6,9.7,1.7c2.8,1.1,5.2,2.6,7.1,4.3c1.9,1.8,3.4,3.8,4.4,6C896.2,329.1,896.7,331.3,896.7,333.5z M851.2,346.2H874
			c2,0,3.9-0.3,5.6-1c1.8-0.7,3.3-1.6,4.7-2.7c1.4-1.2,2.4-2.5,3.2-4.1c0.8-1.5,1.2-3.2,1.2-5c0-1.8-0.4-3.4-1.1-4.9
			c-0.7-1.5-1.8-2.8-3.1-3.9c-1.3-1.1-2.9-2-4.7-2.6c-1.8-0.6-3.7-0.9-5.8-0.9h-22.8L851.2,346.2L851.2,346.2z"/>
		<path d="M1018.5,314.8v6.4h-42.2v22.2h39.7v6.4h-39.7v24.4h44.1v6.4h-52.1v-65.8L1018.5,314.8L1018.5,314.8z"/>
	</g>
</g>
</svg>
