<?xml version="1.0" encoding="utf-8"?>
<!-- Generator: Adobe Illustrator 24.0.0, SVG Export Plug-In . SVG Version: 6.00 Build 0)  -->
<svg version="1.1" id="Layer_1" xmlns="http://www.w3.org/2000/svg" xmlns:xlink="http://www.w3.org/1999/xlink" x="0px" y="0px"
	 viewBox="0 0 1000 1000" style="enable-background:new 0 0 1000 1000;" xml:space="preserve">
<style type="text/css">
	.st0{stroke:#000000;stroke-miterlimit:10;}
	.st1{fill:#FFFFFF;}
	.st2{fill:#676767;}
	.st3{fill:url(#SVGID_1_);}
	.st4{fill:url(#SVGID_2_);}
	.st5{fill:#00E1CD;stroke:#000000;stroke-miterlimit:10;}
	.st6{fill:#4085B8;stroke:#000000;stroke-miterlimit:10;}
	.st7{fill:url(#SVGID_3_);stroke:#000000;stroke-miterlimit:10;}
	.st8{fill:url(#SVGID_4_);stroke:#000000;stroke-miterlimit:10;}
	.st9{fill:#00E1CD;}
	.st10{fill:#4085B8;}
	.st11{fill:url(#SVGID_5_);}
	.st12{fill:url(#SVGID_6_);}
</style>
<g id="fondo_negro_2">
	<rect x="1092" y="-1128" class="st0" width="1000" height="1036"/>
	<g>
		<path class="st1" d="M1764.5-739.6c17.4,26,28.1,56.7,30.1,89.9h-49c-0.9-28.7-5.6-55.8-13.4-80.3
			C1743.8-732.9,1754.6-736.1,1764.5-739.6z"/>
		<path class="st1" d="M1750.5-757.8c-7.9,2.6-16.7,5-25.7,7.2c-7.9-19-17.6-35.8-28.9-49.8C1716.8-789.8,1735.3-775.3,1750.5-757.8
			z"/>
		<path class="st1" d="M1670.6-649.8c-0.3-20.6-1.5-45-4.1-69.6c15.8-1.5,30.8-3.6,45-6.2c7.3,22.8,11.7,48.5,12.6,75.8H1670.6z"/>
		<path class="st1" d="M1703.8-746.2c-12.5,2.3-25.8,4.1-39.9,5.4c-4-28.9-10.1-56.1-18.9-75.6
			C1669-804.5,1689.6-779.4,1703.8-746.2z"/>
		<path class="st1" d="M1578.7-649.8c0.3-25.4,1.7-48.2,3.8-68.1c10.3,0.6,20.7,0.9,31.5,0.9c10.7,0,21.2-0.4,31.5-0.9
			c2.1,19.9,3.5,42.7,3.8,68.1H1578.7z"/>
		<path class="st1" d="M1608.7-820c1.7,0,3.5-0.3,5.2-0.3s3.5,0.2,5.2,0.3c7.4,9.4,17.2,36.5,23.6,80.8c-9.4,0.5-19,0.8-28.8,0.8
			c-9.9,0-19.5-0.3-28.8-0.8C1591.5-783.5,1601.3-810.6,1608.7-820z"/>
		<path class="st1" d="M1582.8-816.3c-8.8,19.5-14.9,46.7-19,75.6c-14.1-1.3-27.4-3.1-39.9-5.4
			C1538.2-779.4,1558.8-804.5,1582.8-816.3z"/>
		<path class="st1" d="M1557.2-649.8h-53.5c1-27.3,5.4-52.9,12.6-75.8c14.2,2.7,29.2,4.8,45,6.2
			C1558.7-694.7,1557.4-670.4,1557.2-649.8z"/>
		<path class="st1" d="M1463.2-739.6c10,3.6,20.8,6.8,32.4,9.6c-7.7,24.4-12.5,51.5-13.4,80.3h-49
			C1435.2-682.8,1445.8-713.7,1463.2-739.6z"/>
		<path class="st2" d="M1455.9-762.8c0,0-5.5-14.9,54-11c0,8.3-6.3,12-6.3,12s-47.5-7.2-47.7,12.4V-762.8z"/>
		<path class="st2" d="M1401.3-718.6c0,0-3.6-10.4,55.4-10.4c-3.6,7-2.9,4.6-5.6,10.6c-28.8,0-49.8,4-49.8,13.3V-718.6z"/>
		
			<linearGradient id="SVGID_1_" gradientUnits="userSpaceOnUse" x1="1439.4153" y1="1738.3999" x2="1683.6161" y2="1738.3999" gradientTransform="matrix(1 0 0 -1 0 1000)">
			<stop  offset="0" style="stop-color:#FFFFFF"/>
			<stop  offset="1" style="stop-color:#404040"/>
		</linearGradient>
		<path class="st3" d="M1671.4-767.1c-13,0-24,8.8-27.5,20.7h-148.4c-26.1-0.5-39.6-9-39.6-16.5c0,13.8,0,16.5,0,16.5
			s-0.7,14,36.8,15.8v0.2h151.2c3.5,11.9,14.5,20.7,27.5,20.7c15.8,0,28.7-12.9,28.7-28.7C1700.1-754.2,1687.2-767.1,1671.4-767.1z
			 M1671.4-725.7c-7,0-12.7-5.7-12.7-12.7s5.7-12.7,12.7-12.7s12.7,5.7,12.7,12.7S1678.4-725.7,1671.4-725.7z"/>
		
			<linearGradient id="SVGID_2_" gradientUnits="userSpaceOnUse" x1="1384.7999" y1="1694.05" x2="1628.9039" y2="1694.05" gradientTransform="matrix(1 0 0 -1 0 1000)">
			<stop  offset="0" style="stop-color:#FFFFFF"/>
			<stop  offset="1" style="stop-color:#404040"/>
		</linearGradient>
		<path class="st4" d="M1616.8-722.8c-13,0-24,8.8-27.5,20.7h-142.2c-29.6,0.6-45.8-8.6-45.8-16.5c0,13.8,0,16.5,0,16.5
			s-1.2,15.1,41,16v0.1h146.9c3.5,11.9,14.5,20.7,27.5,20.7c15.8,0,28.7-12.9,28.7-28.7C1645.5-709.9,1632.6-722.8,1616.8-722.8z
			 M1616.8-681.4c-7,0-12.7-5.7-12.7-12.7s5.7-12.7,12.7-12.7s12.7,5.7,12.7,12.7C1629.5-687.1,1623.8-681.4,1616.8-681.4z"/>
		<path class="st1" d="M1531.9-800.4c-11.3,14-21,30.8-28.9,49.8c-9-2.1-17.7-4.5-25.7-7.2C1492.6-775.3,1511-789.8,1531.9-800.4z"
			/>
		<g>
			<path class="st1" d="M1281.7-533.2v8.2h-18.3v49.6h-9.8V-525h-18.3v-8.2H1281.7z"/>
			<path class="st1" d="M1352.6-533.2v8.2h-31v15.6h29.1v8.3h-29.1v17.3h32.4v8.4h-42.1v-57.8H1352.6z"/>
			<path class="st1" d="M1393.1-505.1c0,4,0.5,7.4,1.5,10.3s2.3,5.3,3.9,7.2c1.6,1.9,3.4,3.3,5.5,4.2c2,0.9,4.1,1.4,6.2,1.4
				s4.1-0.4,5.8-1.3c1.7-0.9,3.3-2,4.6-3.5s2.4-3.1,3.3-4.9s1.5-3.7,1.9-5.7h9.9c-0.6,3.3-1.7,6.3-3,9.2c-1.4,2.8-3.2,5.3-5.3,7.4
				c-2.1,2.1-4.6,3.8-7.5,5s-6.1,1.8-9.6,1.8c-4.1,0-7.8-0.7-11.1-2.1c-3.3-1.4-6.1-3.4-8.4-6.1s-4.1-5.9-5.4-9.8s-1.9-8.3-1.9-13.2
				c0-3.8,0.6-7.5,1.8-11.1c1.2-3.5,2.9-6.7,5.2-9.4c2.3-2.7,5.1-4.9,8.4-6.5s7.1-2.4,11.3-2.4c3.6,0,6.8,0.5,9.6,1.5
				c2.8,1,5.3,2.4,7.4,4.2s3.9,4,5.4,6.4c1.5,2.5,2.6,5.2,3.5,8.2h-10.2c-1.5-4.1-3.5-7.2-6.1-9.2s-5.8-3-9.7-3
				c-2.5,0-4.8,0.6-6.8,1.7c-2.1,1.1-3.8,2.7-5.3,4.6c-1.5,1.9-2.7,4.2-3.5,6.8S1393.1-508.1,1393.1-505.1z"/>
			<path class="st1" d="M1474.9-533.2v23.8h26.2v-23.8h9.8v57.8h-9.8v-25.9h-26.2v25.9h-9.8v-57.8H1474.9z"/>
			<path class="st1" d="M1555.9-533.2l24.8,44v-44h9.8v57.8h-11l-24.9-44.4v44.4h-9.8v-57.8L1555.9-533.2L1555.9-533.2z"/>
			<path class="st1" d="M1674.7-504.5c0,4.5-0.6,8.6-1.8,12.3c-1.2,3.7-2.9,7-5.2,9.7c-2.3,2.7-5.1,4.8-8.4,6.3s-7.1,2.2-11.4,2.2
				s-8.1-0.8-11.4-2.3s-6.1-3.6-8.4-6.3c-2.3-2.7-4-5.9-5.2-9.7c-1.2-3.7-1.8-7.9-1.8-12.3c0-4.5,0.6-8.6,1.8-12.3s2.9-6.9,5.2-9.5
				c2.3-2.7,5.1-4.7,8.4-6.2s7.1-2.2,11.4-2.2s8.1,0.7,11.4,2.2s6.1,3.5,8.4,6.2s4,5.8,5.2,9.5C1674.1-513,1674.7-509,1674.7-504.5z
				 M1664.9-504.5c0-3.5-0.4-6.6-1.3-9.4c-0.9-2.7-2.1-5-3.6-6.9s-3.3-3.3-5.4-4.3s-4.3-1.5-6.7-1.5c-2.4,0-4.6,0.5-6.7,1.5
				s-3.8,2.4-5.3,4.3c-1.5,1.9-2.7,4.2-3.6,6.9s-1.3,5.9-1.3,9.4s0.4,6.6,1.3,9.4s2.1,5.1,3.6,7s3.3,3.4,5.3,4.4
				c2.1,1,4.3,1.5,6.7,1.5c2.4,0,4.6-0.5,6.7-1.5s3.9-2.5,5.4-4.4s2.7-4.3,3.6-7C1664.5-497.9,1664.9-501,1664.9-504.5z"/>
			<path class="st1" d="M1715.3-533.2v49.4h27.8v8.4h-37.6v-57.8H1715.3z"/>
			<path class="st1" d="M1823.3-504.5c0,4.5-0.6,8.6-1.8,12.3c-1.2,3.7-2.9,7-5.2,9.7c-2.3,2.7-5.1,4.8-8.4,6.3s-7.1,2.2-11.4,2.2
				s-8.1-0.8-11.4-2.3s-6.1-3.6-8.4-6.3c-2.3-2.7-4-5.9-5.2-9.7c-1.2-3.7-1.8-7.9-1.8-12.3c0-4.5,0.6-8.6,1.8-12.3
				c1.2-3.7,2.9-6.9,5.2-9.5c2.3-2.7,5.1-4.7,8.4-6.2s7.1-2.2,11.4-2.2s8.1,0.7,11.4,2.2s6.1,3.5,8.4,6.2s4,5.8,5.2,9.5
				C1822.7-513,1823.3-509,1823.3-504.5z M1813.5-504.5c0-3.5-0.4-6.6-1.3-9.4c-0.9-2.7-2.1-5-3.6-6.9s-3.3-3.3-5.4-4.3
				s-4.3-1.5-6.7-1.5c-2.4,0-4.6,0.5-6.7,1.5s-3.8,2.4-5.3,4.3c-1.5,1.9-2.7,4.2-3.6,6.9s-1.3,5.9-1.3,9.4s0.4,6.6,1.3,9.4
				s2.1,5.1,3.6,7s3.3,3.4,5.3,4.4c2.1,1,4.3,1.5,6.7,1.5c2.4,0,4.6-0.5,6.7-1.5s3.9-2.5,5.4-4.4s2.7-4.3,3.6-7
				C1813-497.9,1813.5-501,1813.5-504.5z"/>
			<path class="st1" d="M1861.6-504.3c0,3.6,0.5,6.7,1.4,9.5c0.9,2.7,2.1,5.1,3.7,6.9c1.6,1.9,3.4,3.3,5.5,4.3s4.3,1.5,6.6,1.5
				c1.9,0,3.8-0.5,5.6-1.4s3.5-2.2,5-3.8c1.5-1.6,2.7-3.4,3.7-5.4s1.6-4.2,1.9-6.4h-17.1v-8.2h26.7v31.9h-7.3l-1.2-6.9
				c-1.1,1.2-2.3,2.2-3.7,3.3c-1.3,1-2.7,1.9-4.2,2.6s-3,1.3-4.6,1.8c-1.6,0.4-3.1,0.7-4.7,0.7c-4.1,0-7.9-0.8-11.2-2.3
				c-3.3-1.5-6.2-3.7-8.5-6.4c-2.3-2.7-4.1-5.9-5.4-9.6s-1.9-7.7-1.9-12.1c0-2.5,0.3-5,0.8-7.5s1.3-4.9,2.4-7.1
				c1-2.3,2.3-4.3,3.8-6.3c1.5-1.9,3.3-3.6,5.2-5c2-1.4,4.2-2.5,6.6-3.3s5-1.2,7.8-1.2c3.6,0,6.8,0.5,9.6,1.5s5.3,2.4,7.4,4.2
				s3.9,4,5.4,6.4c1.5,2.5,2.6,5.2,3.5,8.2h-10.2c-1.5-4.1-3.5-7.2-6.1-9.2s-5.8-3-9.7-3c-2.5,0-4.8,0.6-6.8,1.8
				c-2.1,1.2-3.8,2.8-5.3,4.8s-2.7,4.4-3.5,7.1C1862-510.2,1861.6-507.4,1861.6-504.3z"/>
			<path class="st1" d="M1957.2-507.6l14.5-25.6h11.1l-20.9,34.9v22.9h-9.8v-22.9l-20.9-34.9h11.1L1957.2-507.6z"/>
		</g>
		<g>
			<path class="st1" d="M1403.4-410.1c0.1,1.5,0.4,2.8,1,4.1c0.6,1.2,1.3,2.3,2.3,3.2c0.9,0.9,2.1,1.6,3.4,2.1s2.7,0.8,4.2,0.8
				c1.4,0,2.7-0.2,4-0.5s2.4-0.8,3.3-1.5c1-0.7,1.7-1.5,2.3-2.6c0.6-1.1,0.9-2.3,0.9-3.8c0-1.2-0.3-2.3-0.9-3.1
				c-0.6-0.9-1.4-1.6-2.5-2.2c-1-0.6-2.2-1.2-3.5-1.6c-1.3-0.5-2.6-0.9-3.9-1.3c-1.1-0.3-2.2-0.7-3.3-1c-1.1-0.4-2.2-0.8-3.2-1.3
				s-2-1-2.9-1.6s-1.7-1.3-2.3-2.2c-0.7-0.8-1.2-1.8-1.6-2.8c-0.4-1.1-0.6-2.3-0.6-3.7c0-1.7,0.3-3.2,1-4.5s1.6-2.4,2.8-3.3
				c1.2-0.9,2.7-1.6,4.4-2c1.7-0.5,3.5-0.7,5.5-0.7c1.8,0,3.4,0.2,4.8,0.5c1.4,0.4,2.6,0.8,3.6,1.5c1,0.6,1.9,1.3,2.6,2.1
				s1.3,1.7,1.7,2.6c0.5,0.9,0.8,1.8,1,2.8s0.4,1.9,0.4,2.8h-4.5c-0.1-1.4-0.4-2.6-1-3.6c-0.5-1-1.2-1.9-2.1-2.6s-1.8-1.2-3-1.6
				c-1.1-0.4-2.3-0.5-3.6-0.5c-1.2,0-2.3,0.1-3.4,0.4c-1.1,0.2-2.1,0.6-3,1.1s-1.6,1.2-2.1,2.1c-0.5,0.8-0.8,1.9-0.8,3.1
				c0,1.3,0.3,2.3,0.9,3.2s1.4,1.6,2.5,2.3c1,0.6,2.2,1.2,3.5,1.6c1.3,0.5,2.7,0.9,4.1,1.3c1.1,0.3,2.2,0.7,3.3,1.1
				c1.1,0.4,2.2,0.8,3.2,1.3s2,1,2.9,1.6s1.6,1.3,2.3,2.1c0.7,0.8,1.2,1.7,1.5,2.8c0.4,1,0.5,2.2,0.5,3.6c0,2-0.4,3.8-1.1,5.3
				s-1.8,2.8-3.1,3.8s-2.9,1.8-4.7,2.3c-1.8,0.5-3.8,0.8-5.9,0.8c-1.9,0-3.8-0.3-5.7-1c-1.8-0.7-3.5-1.6-4.9-2.8
				c-1.4-1.2-2.6-2.7-3.5-4.4s-1.3-3.7-1.4-5.9h4.6V-410.1z"/>
			<path class="st1" d="M1470.6-438.5v27.8c0,1.7,0.3,3.2,0.9,4.5s1.4,2.5,2.4,3.4s2.1,1.6,3.4,2.1s2.5,0.7,3.8,0.7s2.7-0.2,4-0.7
				c1.4-0.5,2.6-1.1,3.6-2c1.1-0.9,2-2,2.6-3.3c0.7-1.3,1-2.9,1-4.6v-27.9h4.4v27.6c0,1.6-0.2,3.1-0.6,4.4c-0.4,1.4-1,2.6-1.8,3.7
				c-0.7,1.1-1.6,2.1-2.6,2.9s-2.1,1.5-3.3,2.1s-2.4,1-3.6,1.3c-1.3,0.3-2.5,0.4-3.7,0.4s-2.4-0.1-3.6-0.4s-2.4-0.7-3.5-1.3
				c-1.1-0.6-2.1-1.3-3.1-2.1c-1-0.8-1.8-1.8-2.5-2.9s-1.3-2.3-1.7-3.7c-0.4-1.4-0.6-2.9-0.6-4.5v-27.5H1470.6z"/>
			<path class="st1" d="M1537.4-438.5h15.6c2,0,3.8,0.4,5.3,1.1s2.8,1.6,3.9,2.7c1,1.1,1.8,2.4,2.4,3.8c0.5,1.4,0.8,2.8,0.8,4.2
				c0,1.5-0.3,3-0.8,4.4s-1.3,2.7-2.4,3.8s-2.4,2-3.9,2.7s-3.3,1-5.3,1h-11.2v17.7h-4.4V-438.5z M1541.8-418.8h11.2
				c1.1,0,2.1-0.2,3-0.6s1.8-1,2.6-1.7c0.7-0.7,1.3-1.6,1.8-2.5s0.7-2,0.7-3.1s-0.2-2.1-0.6-3.1c-0.4-0.9-1-1.8-1.7-2.4
				c-0.7-0.7-1.6-1.2-2.5-1.6c-1-0.4-2-0.6-3.2-0.6h-11.2v15.6H1541.8z"/>
			<path class="st1" d="M1605.7-438.5h15.6c2,0,3.8,0.4,5.3,1.1s2.8,1.6,3.9,2.7c1,1.1,1.8,2.4,2.4,3.8c0.5,1.4,0.8,2.8,0.8,4.2
				c0,1.5-0.3,3-0.8,4.4s-1.3,2.7-2.4,3.8s-2.4,2-3.9,2.7s-3.3,1-5.3,1h-11.2v17.7h-4.4V-438.5z M1610.1-418.8h11.2
				c1.1,0,2.1-0.2,3-0.6c1-0.4,1.8-1,2.6-1.7c0.7-0.7,1.3-1.6,1.8-2.5s0.7-2,0.7-3.1s-0.2-2.1-0.6-3.1c-0.4-0.9-1-1.8-1.7-2.4
				c-0.7-0.7-1.6-1.2-2.5-1.6c-1-0.4-2-0.6-3.2-0.6h-11.2v15.6H1610.1z"/>
			<path class="st1" d="M1701.3-417.9c0,3.2-0.4,6.1-1.2,8.8c-0.8,2.7-2,5-3.6,6.9s-3.5,3.4-5.8,4.5s-4.9,1.6-7.9,1.6
				s-5.6-0.5-7.9-1.6s-4.2-2.6-5.8-4.5c-1.6-1.9-2.8-4.2-3.6-6.9c-0.8-2.7-1.2-5.6-1.2-8.8c0-3.2,0.4-6.1,1.2-8.7
				c0.8-2.7,2-4.9,3.6-6.9c1.6-1.9,3.5-3.4,5.8-4.5s4.9-1.6,7.9-1.6s5.6,0.5,7.9,1.6s4.2,2.6,5.8,4.5c1.6,1.9,2.8,4.2,3.6,6.9
				C1700.9-423.9,1701.3-421,1701.3-417.9z M1696.9-417.9c0-2.8-0.4-5.3-1.1-7.5s-1.7-4.1-3-5.6s-2.8-2.7-4.5-3.5s-3.6-1.2-5.5-1.2
				c-2,0-3.8,0.4-5.6,1.2c-1.7,0.8-3.2,2-4.5,3.5s-2.3,3.4-3,5.6s-1.1,4.7-1.1,7.5s0.4,5.3,1.1,7.5s1.7,4.1,3,5.6s2.8,2.7,4.5,3.5
				s3.6,1.2,5.6,1.2s3.8-0.4,5.5-1.2c1.7-0.8,3.2-2,4.5-3.5s2.3-3.4,3-5.6C1696.6-412.6,1696.9-415.1,1696.9-417.9z"/>
			<path class="st1" d="M1767.8-426.7c0,1-0.1,2-0.4,3c-0.2,1-0.6,1.9-1.1,2.8s-1.1,1.7-1.8,2.4c-0.7,0.7-1.6,1.4-2.5,1.9
				c1.1,0.3,1.9,0.7,2.6,1.3c0.7,0.6,1.2,1.2,1.6,2c0.4,0.7,0.7,1.5,0.8,2.4c0.1,0.9,0.2,1.8,0.2,2.7v6.2c0,0.9,0.1,1.8,0.4,2.6
				c0.2,0.8,0.6,1.6,0.9,2.3h-4.8c-0.2-0.3-0.4-0.7-0.5-1.1s-0.2-0.8-0.3-1.3c-0.1-0.4-0.1-0.9-0.1-1.3s0-0.8,0-1.1v-6.6
				c0-0.8-0.1-1.6-0.4-2.4s-0.7-1.5-1.3-2.1c-0.6-0.6-1.4-1.1-2.4-1.5s-2.1-0.6-3.5-0.6h-12.5v17.7h-4.4v-41.3h16.9
				c2,0,3.8,0.4,5.3,1.1s2.9,1.6,3.9,2.7c1.1,1.1,1.9,2.4,2.4,3.8C1767.5-429.5,1767.8-428.1,1767.8-426.7z M1742.8-418.8h12.5
				c1.1,0,2.1-0.2,3.1-0.6s1.8-1,2.6-1.7c0.7-0.7,1.3-1.6,1.8-2.5s0.7-2,0.7-3.1s-0.2-2.1-0.6-3.1c-0.4-0.9-1-1.8-1.7-2.4
				c-0.7-0.7-1.6-1.2-2.6-1.6s-2.1-0.6-3.2-0.6h-12.5v15.6H1742.8z"/>
			<path class="st1" d="M1835.3-438.5v4h-13.7v37.3h-4.4v-37.3h-13.6v-4H1835.3z"/>
		</g>
		<g>
			<path class="st1" d="M1447.9-609v4.2h-23.6v14.7h20.5v4.2h-20.5v20.3h-4.6V-609H1447.9z"/>
			<path class="st1" d="M1494.4-609v29.2c0,1.8,0.3,3.3,1,4.7s1.5,2.6,2.6,3.6c1,1,2.2,1.7,3.5,2.2s2.6,0.8,4,0.8s2.8-0.2,4.2-0.7
				c1.4-0.5,2.7-1.2,3.8-2.1c1.1-0.9,2.1-2.1,2.8-3.5c0.7-1.4,1.1-3,1.1-4.9V-609h4.6v29.1c0,1.7-0.2,3.2-0.7,4.7
				c-0.4,1.4-1.1,2.7-1.9,3.9s-1.7,2.2-2.8,3.1c-1.1,0.9-2.2,1.6-3.4,2.2c-1.2,0.6-2.5,1.1-3.8,1.4c-1.3,0.3-2.6,0.5-3.9,0.5
				c-1.2,0-2.5-0.2-3.8-0.5s-2.5-0.7-3.6-1.3c-1.2-0.6-2.3-1.3-3.3-2.2s-1.9-1.9-2.6-3.1c-0.7-1.2-1.3-2.5-1.8-3.9
				c-0.4-1.5-0.7-3-0.7-4.8V-609H1494.4z"/>
			<path class="st1" d="M1592.9-609v4.2h-14.4v39.2h-4.6v-39.2h-14.3v-4.2H1592.9z"/>
			<path class="st1" d="M1637.3-609v29.2c0,1.8,0.3,3.3,1,4.7s1.5,2.6,2.6,3.6c1,1,2.2,1.7,3.5,2.2s2.6,0.8,4,0.8s2.8-0.2,4.2-0.7
				c1.4-0.5,2.7-1.2,3.8-2.1c1.1-0.9,2.1-2.1,2.8-3.5c0.7-1.4,1.1-3,1.1-4.9V-609h4.6v29.1c0,1.7-0.2,3.2-0.7,4.7
				c-0.4,1.4-1.1,2.7-1.9,3.9s-1.7,2.2-2.8,3.1c-1.1,0.9-2.2,1.6-3.4,2.2c-1.2,0.6-2.5,1.1-3.8,1.4c-1.3,0.3-2.6,0.5-3.9,0.5
				c-1.2,0-2.5-0.2-3.8-0.5s-2.5-0.7-3.6-1.3c-1.2-0.6-2.3-1.3-3.3-2.2s-1.9-1.9-2.6-3.1c-0.7-1.2-1.3-2.5-1.8-3.9
				c-0.4-1.5-0.7-3-0.7-4.8V-609H1637.3z"/>
			<path class="st1" d="M1738.4-596.6c0,1.1-0.1,2.1-0.4,3.2c-0.3,1-0.6,2-1.2,2.9c-0.5,0.9-1.1,1.8-1.9,2.5c-0.8,0.8-1.6,1.4-2.6,2
				c1.1,0.3,2,0.7,2.8,1.3c0.7,0.6,1.3,1.3,1.7,2.1c0.4,0.8,0.7,1.6,0.8,2.5c0.2,0.9,0.2,1.8,0.2,2.8v6.6c0,0.9,0.1,1.8,0.4,2.7
				s0.6,1.7,1,2.4h-5c-0.2-0.3-0.4-0.7-0.5-1.1c-0.1-0.4-0.2-0.9-0.3-1.3c-0.1-0.5-0.1-0.9-0.1-1.3c0-0.4,0-0.8,0-1.1v-6.9
				c0-0.8-0.1-1.7-0.4-2.5s-0.7-1.6-1.4-2.2c-0.6-0.6-1.5-1.2-2.5-1.6c-1-0.4-2.3-0.6-3.7-0.6h-13.1v18.6h-4.6V-609h17.7
				c2.1,0,4,0.4,5.6,1.1c1.6,0.7,3,1.7,4.1,2.9s1.9,2.5,2.5,4C1738.1-599.6,1738.4-598.1,1738.4-596.6z M1712.1-588.2h13.1
				c1.1,0,2.2-0.2,3.2-0.7c1-0.4,1.9-1,2.7-1.8c0.8-0.8,1.4-1.7,1.9-2.7s0.7-2.1,0.7-3.3s-0.2-2.2-0.6-3.2s-1-1.8-1.8-2.6
				c-0.8-0.7-1.7-1.3-2.7-1.7s-2.2-0.6-3.4-0.6h-13.1L1712.1-588.2L1712.1-588.2z"/>
			<path class="st1" d="M1808.6-609v4.2h-24.3v14.7h22.9v4.2h-22.9v16.1h25.4v4.2h-30V-609H1808.6z"/>
		</g>
	</g>
</g>
<path class="st5" d="M706.1,249.7c22.6,33.6,36.4,73.5,39,116.4h-63.5c-1.2-37.2-7.3-72.3-17.3-104
	C679.2,258.4,693.2,254.3,706.1,249.7z"/>
<path class="st5" d="M687.9,226.1c-10.3,3.4-21.6,6.5-33.3,9.3c-10.2-24.6-22.8-46.3-37.5-64.5C644.2,184.6,668.2,203.4,687.9,226.1
	z"/>
<path class="st5" d="M584.4,366.1c-0.4-26.7-2-58.3-5.3-90.1c20.5-1.9,39.9-4.6,58.3-8c9.4,29.6,15.2,62.9,16.4,98.2h-69.4V366.1z"
	/>
<path class="st5" d="M627.4,241.2c-16.2,3-33.5,5.3-51.7,7c-5.2-37.4-13.1-72.6-24.5-97.9C582.3,165.6,609,198,627.4,241.2z"/>
<path class="st5" d="M465.2,366.1c0.4-32.9,2.2-62.4,4.9-88.2c13.3,0.7,26.9,1.2,40.8,1.2s27.5-0.5,40.8-1.2
	c2.7,25.8,4.5,55.3,4.9,88.2L465.2,366.1L465.2,366.1z"/>
<path class="st5" d="M504.1,145.5c2.2,0,4.5-0.3,6.8-0.3c2.2,0,4.5,0.3,6.8,0.3c9.5,12.2,22.3,47.3,30.6,104.7
	c-12.2,0.7-24.6,1.1-37.4,1.1c-12.8,0-25.2-0.4-37.3-1.1C481.9,192.8,494.6,157.6,504.1,145.5z"/>
<path class="st5" d="M470.7,150.3c-11.4,25.3-19.4,60.6-24.6,97.9c-18.2-1.7-35.5-4.1-51.8-7C412.8,198,439.5,165.5,470.7,150.3z"/>
<path class="st5" d="M437.4,366.1H368c1.2-35.3,6.9-68.6,16.4-98.2c18.4,3.4,37.8,6.2,58.3,8C439.3,307.8,437.7,339.4,437.4,366.1z"
	/>
<path class="st5" d="M315.6,249.7c12.9,4.6,27,8.8,41.9,12.4c-10,31.6-16.1,66.8-17.3,104h-63.5C279.3,323.2,293,283.3,315.6,249.7z
	"/>
<g>
	<path class="st0" d="M79.1,495.6v10.7H55.4v64.1H42.8v-64.1H19.1v-10.7H79.1z"/>
	<path class="st0" d="M170.9,495.6v10.7h-40.2v20.2h37.7v10.7h-37.7v22.4h41.9v10.8h-54.5v-74.8L170.9,495.6L170.9,495.6z"/>
	<path class="st0" d="M223.2,532c0,5.1,0.6,9.6,1.9,13.4s2.9,6.9,5,9.3c2.1,2.4,4.4,4.3,7.1,5.5c2.6,1.2,5.3,1.8,8,1.8
		c2.8,0,5.3-0.6,7.5-1.7c2.3-1.1,4.2-2.6,5.9-4.5s3.1-4,4.2-6.4s1.9-4.8,2.4-7.3H278c-0.8,4.3-2.1,8.2-3.9,11.9s-4.1,6.9-6.9,9.6
		c-2.8,2.7-6,4.9-9.7,6.4c-3.7,1.6-7.8,2.3-12.4,2.3c-5.3,0-10.1-0.9-14.3-2.7c-4.3-1.8-7.9-4.4-10.9-7.9s-5.3-7.7-6.9-12.7
		c-1.6-5-2.4-10.7-2.4-17.1c0-5,0.8-9.7,2.3-14.3s3.8-8.7,6.7-12.2s6.6-6.4,10.8-8.5c4.3-2.1,9.1-3.2,14.6-3.2c4.6,0,8.8,0.7,12.4,2
		c3.6,1.3,6.8,3.2,9.6,5.5c2.8,2.3,5.1,5.1,6.9,8.3c1.9,3.2,3.4,6.7,4.5,10.6h-13.1c-1.9-5.3-4.5-9.3-7.8-11.9
		c-3.3-2.6-7.5-3.9-12.5-3.9c-3.2,0-6.2,0.7-8.8,2.2c-2.7,1.5-5,3.5-6.9,6s-3.4,5.5-4.5,8.8C223.7,524.6,223.2,528.2,223.2,532z"/>
	<path class="st0" d="M329,495.6v30.8h33.8v-30.8h12.7v74.8h-12.7V537H329v33.5h-12.7v-74.8H329V495.6z"/>
	<path class="st0" d="M433.8,495.6l32.1,56.9v-56.9h12.7v74.8h-14.3L432,513v57.4h-12.7v-74.8L433.8,495.6L433.8,495.6z"/>
	<path class="st0" d="M587.6,532.8c0,5.8-0.8,11.1-2.3,16c-1.5,4.8-3.8,9-6.7,12.5c-3,3.5-6.6,6.2-10.9,8.1
		c-4.3,1.9-9.2,2.9-14.7,2.9s-10.4-1-14.7-2.9s-7.9-4.7-10.8-8.1c-3-3.5-5.2-7.6-6.7-12.5c-1.5-4.8-2.3-10.2-2.3-16
		s0.8-11.1,2.3-15.9c1.5-4.8,3.8-8.9,6.7-12.3s6.6-6.1,10.8-8c4.3-1.9,9.2-2.8,14.7-2.8s10.5,1,14.7,2.9c4.3,1.9,7.9,4.6,10.9,8
		c2.9,3.4,5.2,7.5,6.7,12.3C586.8,521.7,587.6,527,587.6,532.8z M574.9,532.8c0-4.5-0.6-8.6-1.7-12.1c-1.1-3.5-2.7-6.5-4.7-8.9
		s-4.3-4.3-7-5.5c-2.7-1.3-5.5-1.9-8.6-1.9s-6,0.6-8.7,1.9s-5,3.1-6.9,5.5s-3.5,5.4-4.6,8.9s-1.7,7.6-1.7,12.1s0.6,8.6,1.7,12.2
		c1.1,3.6,2.7,6.6,4.6,9.1c1.9,2.5,4.3,4.4,6.9,5.7c2.7,1.3,5.6,2,8.7,2c3.1,0,5.9-0.6,8.6-2c2.7-1.3,5-3.2,7-5.7s3.5-5.5,4.7-9.1
		S574.9,537.3,574.9,532.8z"/>
	<path class="st0" d="M640.1,495.6v64h36v10.8h-48.6v-74.8L640.1,495.6L640.1,495.6z"/>
	<path class="st0" d="M779.7,532.8c0,5.8-0.8,11.1-2.3,16c-1.5,4.8-3.8,9-6.7,12.5c-3,3.5-6.6,6.2-10.9,8.1
		c-4.3,1.9-9.2,2.9-14.7,2.9s-10.4-1-14.7-2.9s-7.9-4.7-10.8-8.1c-3-3.5-5.2-7.6-6.7-12.5c-1.5-4.8-2.3-10.2-2.3-16
		s0.8-11.1,2.3-15.9c1.5-4.8,3.8-8.9,6.7-12.3s6.6-6.1,10.8-8c4.3-1.9,9.2-2.8,14.7-2.8s10.5,1,14.7,2.9c4.3,1.9,7.9,4.6,10.9,8
		c2.9,3.4,5.2,7.5,6.7,12.3C779,521.7,779.7,527,779.7,532.8z M767.1,532.8c0-4.5-0.6-8.6-1.7-12.1s-2.7-6.5-4.7-8.9s-4.3-4.3-7-5.5
		c-2.7-1.3-5.5-1.9-8.6-1.9s-6,0.6-8.7,1.9s-5,3.1-6.9,5.5s-3.5,5.4-4.6,8.9s-1.7,7.6-1.7,12.1s0.6,8.6,1.7,12.2
		c1.1,3.6,2.7,6.6,4.6,9.1c1.9,2.5,4.3,4.4,6.9,5.7c2.7,1.3,5.6,2,8.7,2c3.1,0,5.9-0.6,8.6-2c2.7-1.3,5-3.2,7-5.7s3.5-5.5,4.7-9.1
		C766.5,541.4,767.1,537.3,767.1,532.8z"/>
	<path class="st0" d="M829.3,533c0,4.6,0.6,8.7,1.8,12.3s2.8,6.5,4.8,9c2,2.4,4.4,4.3,7.1,5.6c2.7,1.3,5.5,1.9,8.5,1.9
		c2.5,0,4.9-0.6,7.2-1.8c2.4-1.2,4.5-2.8,6.4-4.9c1.9-2,3.5-4.4,4.8-7s2.1-5.4,2.4-8.3h-22.1v-10.6h34.5v41.2h-9.5l-1.5-8.9
		c-1.4,1.5-3,2.9-4.7,4.2s-3.5,2.4-5.4,3.4s-3.9,1.7-5.9,2.3s-4.1,0.9-6.1,0.9c-5.4,0-10.2-1-14.5-3s-8-4.7-11-8.2s-5.4-7.6-7-12.4
		c-1.6-4.8-2.4-10-2.4-15.6c0-3.3,0.4-6.5,1-9.7c0.7-3.2,1.7-6.3,3.1-9.2c1.3-2.9,3-5.6,5-8.1s4.2-4.6,6.8-6.5
		c2.6-1.8,5.4-3.3,8.5-4.3s6.5-1.6,10.1-1.6c4.6,0,8.8,0.7,12.4,2c3.6,1.3,6.8,3.2,9.6,5.5c2.7,2.3,5.1,5.1,6.9,8.3
		c1.9,3.2,3.4,6.7,4.5,10.6h-13.1c-1.9-5.3-4.5-9.3-7.8-11.9s-7.5-3.9-12.5-3.9c-3.2,0-6.2,0.8-8.8,2.3c-2.7,1.5-5,3.6-6.9,6.2
		c-1.9,2.6-3.4,5.7-4.5,9.2C829.9,525.4,829.3,529.1,829.3,533z"/>
	<path class="st0" d="M953.1,528.8l18.8-33.1h14.4l-27.1,45.2v29.6h-12.7v-29.6l-27-45.2h14.4L953.1,528.8z"/>
</g>
<g>
	<path class="st0" d="M236.6,654.9c0.1,1.9,0.6,3.7,1.3,5.3s1.7,3,2.9,4.2s2.7,2.1,4.3,2.7c1.7,0.6,3.5,1,5.5,1
		c1.8,0,3.5-0.2,5.1-0.6c1.6-0.4,3.1-1,4.3-1.9c1.3-0.9,2.2-2,3-3.3c0.7-1.4,1.1-3,1.1-5c0-1.6-0.4-2.9-1.2-4
		c-0.8-1.1-1.9-2.1-3.2-2.9c-1.3-0.8-2.8-1.5-4.5-2.1s-3.4-1.1-5.1-1.6c-1.4-0.4-2.9-0.9-4.3-1.3c-1.4-0.5-2.8-1-4.2-1.6
		c-1.3-0.6-2.6-1.3-3.8-2.1s-2.2-1.7-3-2.8c-0.9-1.1-1.5-2.3-2-3.7s-0.7-2.9-0.7-4.7c0-2.2,0.4-4.2,1.3-5.9c0.9-1.7,2.1-3.1,3.7-4.3
		c1.6-1.1,3.4-2,5.6-2.6c2.2-0.6,4.6-0.9,7.2-0.9c2.3,0,4.4,0.2,6.2,0.7c1.8,0.5,3.3,1.1,4.7,1.9c1.3,0.8,2.5,1.7,3.4,2.8
		s1.7,2.2,2.3,3.3c0.6,1.2,1,2.4,1.3,3.6c0.3,1.3,0.5,2.5,0.5,3.6h-5.8c-0.2-1.8-0.6-3.4-1.3-4.7c-0.7-1.4-1.6-2.5-2.7-3.4
		s-2.4-1.6-3.8-2.1c-1.5-0.5-3-0.7-4.6-0.7c-1.5,0-3,0.2-4.4,0.5s-2.7,0.8-3.9,1.5c-1.1,0.7-2.1,1.6-2.8,2.7s-1.1,2.4-1.1,4
		s0.4,3,1.2,4.2c0.8,1.1,1.9,2.1,3.2,2.9c1.3,0.8,2.8,1.5,4.5,2.1s3.5,1.2,5.3,1.7c1.5,0.4,2.9,0.9,4.3,1.4c1.4,0.5,2.8,1,4.1,1.6
		c1.3,0.6,2.6,1.3,3.7,2.1s2.1,1.7,3,2.7c0.8,1,1.5,2.2,2,3.6c0.5,1.3,0.7,2.9,0.7,4.6c0,2.6-0.5,4.9-1.4,6.9c-1,2-2.3,3.6-4,5
		c-1.7,1.3-3.7,2.3-6.1,3c-2.3,0.7-4.9,1-7.7,1c-2.5,0-4.9-0.4-7.3-1.3c-2.4-0.9-4.5-2.1-6.3-3.6c-1.9-1.6-3.3-3.5-4.5-5.7
		c-1.1-2.2-1.7-4.8-1.8-7.6h5.8V654.9z"/>
	<path class="st0" d="M323.6,618.2v36c0,2.2,0.4,4.1,1.2,5.8c0.8,1.7,1.8,3.2,3.1,4.4c1.3,1.2,2.7,2.1,4.4,2.8c1.6,0.6,3.3,1,4.9,1
		c1.7,0,3.5-0.3,5.2-0.9s3.3-1.5,4.7-2.6c1.4-1.1,2.5-2.6,3.4-4.3s1.3-3.7,1.3-6v-36.1h5.7V654c0,2.1-0.3,4-0.8,5.7
		c-0.6,1.7-1.3,3.3-2.3,4.8c-1,1.4-2.1,2.7-3.4,3.8s-2.7,2-4.2,2.7s-3.1,1.3-4.7,1.7s-3.2,0.6-4.8,0.6c-1.5,0-3.1-0.2-4.6-0.6
		c-1.6-0.4-3.1-0.9-4.5-1.6c-1.4-0.7-2.8-1.6-4-2.7c-1.3-1.1-2.3-2.3-3.3-3.8c-0.9-1.4-1.6-3-2.2-4.8c-0.5-1.8-0.8-3.7-0.8-5.9
		v-35.6h5.7V618.2z"/>
	<path class="st0" d="M410,618.2h20.2c2.6,0,4.9,0.5,6.9,1.4s3.7,2.1,5,3.5c1.4,1.4,2.4,3.1,3.1,4.9c0.7,1.8,1.1,3.6,1.1,5.4
		c0,1.9-0.4,3.8-1.1,5.7c-0.7,1.8-1.7,3.5-3.1,4.9s-3,2.6-5,3.4s-4.3,1.3-6.9,1.3h-14.6v22.9H410V618.2z M415.6,643.7h14.6
		c1.4,0,2.7-0.3,3.9-0.8s2.4-1.3,3.3-2.2c1-0.9,1.7-2,2.3-3.3c0.6-1.3,0.8-2.6,0.8-4.1c0-1.4-0.3-2.8-0.8-4s-1.3-2.3-2.2-3.2
		c-0.9-0.9-2-1.6-3.3-2.1s-2.6-0.7-4.1-0.7h-14.6v20.4H415.6z"/>
	<path class="st0" d="M498.3,618.2h20.2c2.6,0,4.9,0.5,6.9,1.4s3.7,2.1,5,3.5c1.4,1.4,2.4,3.1,3.1,4.9c0.7,1.8,1.1,3.6,1.1,5.4
		c0,1.9-0.4,3.8-1.1,5.7c-0.7,1.8-1.7,3.5-3.1,4.9c-1.4,1.4-3,2.6-5,3.4s-4.3,1.3-6.9,1.3H504v22.9h-5.7V618.2z M504,643.7h14.6
		c1.4,0,2.7-0.3,3.9-0.8c1.3-0.5,2.4-1.3,3.3-2.2c1-0.9,1.7-2,2.3-3.3s0.8-2.6,0.8-4.1c0-1.4-0.3-2.8-0.8-4s-1.3-2.3-2.2-3.2
		s-2-1.6-3.3-2.1s-2.6-0.7-4.1-0.7H504V643.7z"/>
	<path class="st0" d="M622,644.9c0,4.1-0.5,7.9-1.6,11.3c-1.1,3.4-2.6,6.4-4.7,8.9c-2,2.5-4.6,4.4-7.5,5.8c-3,1.4-6.4,2.1-10.2,2.1
		s-7.2-0.7-10.2-2.1c-3-1.4-5.5-3.3-7.5-5.8s-3.6-5.5-4.6-8.9c-1.1-3.4-1.6-7.2-1.6-11.3s0.5-7.8,1.6-11.3c1.1-3.4,2.6-6.4,4.6-8.9
		s4.5-4.4,7.5-5.8c3-1.4,6.4-2.1,10.2-2.1s7.2,0.7,10.2,2.1c3,1.4,5.5,3.3,7.5,5.8s3.6,5.4,4.7,8.9C621.5,637,622,640.8,622,644.9z
		 M616.3,644.9c0-3.6-0.5-6.8-1.4-9.7c-0.9-2.8-2.2-5.3-3.9-7.2c-1.6-2-3.6-3.5-5.8-4.5s-4.6-1.6-7.2-1.6c-2.6,0-5,0.5-7.2,1.6
		c-2.2,1-4.1,2.5-5.8,4.5c-1.6,2-2.9,4.4-3.8,7.2c-0.9,2.8-1.4,6.1-1.4,9.7s0.5,6.8,1.4,9.7s2.2,5.3,3.8,7.3s3.6,3.5,5.8,4.5
		s4.6,1.6,7.2,1.6c2.6,0,4.9-0.5,7.2-1.6c2.2-1,4.2-2.6,5.8-4.5c1.6-2,2.9-4.4,3.9-7.3C615.8,651.7,616.3,648.5,616.3,644.9z"/>
	<path class="st0" d="M708,633.4c0,1.3-0.2,2.6-0.5,3.9c-0.3,1.3-0.8,2.5-1.4,3.6c-0.6,1.1-1.4,2.2-2.4,3.1c-0.9,0.9-2,1.8-3.3,2.5
		c1.4,0.4,2.5,0.9,3.4,1.6c0.9,0.7,1.6,1.6,2.1,2.5c0.5,1,0.8,2,1,3.1s0.3,2.3,0.3,3.4v8.1c0,1.1,0.2,2.3,0.5,3.4
		c0.3,1.1,0.7,2.1,1.2,3h-6.2c-0.3-0.4-0.5-0.9-0.6-1.4s-0.3-1.1-0.3-1.6c-0.1-0.6-0.1-1.1-0.2-1.6c0-0.5,0-1,0-1.4v-8.5
		c0-1-0.2-2-0.5-3s-0.9-1.9-1.7-2.7s-1.8-1.4-3-1.9c-1.3-0.5-2.8-0.7-4.6-0.7h-16.2v22.9H670v-53.4h21.8c2.6,0,4.9,0.5,6.9,1.4
		s3.7,2.1,5.1,3.5c1.4,1.4,2.4,3.1,3.1,4.9C707.6,629.8,708,631.6,708,633.4z M675.7,643.7h16.2c1.4,0,2.7-0.3,4-0.8
		s2.4-1.3,3.3-2.2c1-0.9,1.7-2,2.3-3.3s0.8-2.6,0.8-4.1c0-1.4-0.3-2.8-0.8-4s-1.3-2.3-2.2-3.2s-2-1.6-3.3-2.1s-2.7-0.7-4.1-0.7
		h-16.2V643.7z"/>
	<path class="st0" d="M795.4,618.2v5.2h-17.7v48.2H772v-48.2h-17.7v-5.2H795.4z"/>
</g>
<path class="st6" d="M306.1,219.5c0,0-7.2-19.4,70-14.2c0,10.8-8.1,15.6-8.1,15.6s-61.6-9.3-61.9,16V219.5z"/>
<path class="st6" d="M235.4,276.8c0,0-4.7-13.5,71.8-13.5c-4.6,9.1-3.7,6-7.3,13.7c-37.4,0-64.5,5.1-64.5,17.2L235.4,276.8
	L235.4,276.8z"/>
<linearGradient id="SVGID_3_" gradientUnits="userSpaceOnUse" x1="284.787" y1="748.75" x2="601.2881" y2="748.75" gradientTransform="matrix(1 0 0 -1 0 1000)">
	<stop  offset="0" style="stop-color:#5AB9E4"/>
	<stop  offset="1" style="stop-color:#6B2EFB"/>
</linearGradient>
<path class="st7" d="M585.4,214.1c-16.9,0-31.2,11.3-35.7,26.8H357.4c-33.8-0.7-51.3-11.7-51.3-21.3c0,17.9,0,21.3,0,21.3
	s-0.9,18.2,47.7,20.5v0.2h195.9c4.5,15.5,18.8,26.8,35.7,26.8c20.5,0,37.2-16.7,37.2-37.2C622.6,230.8,605.9,214.1,585.4,214.1z
	 M585.4,267.7c-9.1,0-16.4-7.4-16.4-16.4c0-9.1,7.4-16.4,16.4-16.4c9.1,0,16.4,7.4,16.4,16.4C601.8,260.3,594.5,267.7,585.4,267.7z"
	/>
<linearGradient id="SVGID_4_" gradientUnits="userSpaceOnUse" x1="214.0149" y1="691.45" x2="530.519" y2="691.45" gradientTransform="matrix(1 0 0 -1 0 1000)">
	<stop  offset="0" style="stop-color:#5AB9E4"/>
	<stop  offset="1" style="stop-color:#6B2EFB"/>
</linearGradient>
<path class="st8" d="M514.6,271.4c-16.9,0-31.2,11.3-35.7,26.8H294.7c-38.3,0.8-59.3-11.1-59.3-21.4c0,17.9,0,21.3,0,21.3
	s-1.5,19.5,53.2,20.7v0.1H479c4.5,15.5,18.8,26.8,35.7,26.8c20.5,0,37.2-16.7,37.2-37.2C551.8,288.1,535.1,271.4,514.6,271.4z
	 M514.6,325c-9.1,0-16.4-7.4-16.4-16.4c0-9.1,7.4-16.4,16.4-16.4c9.1,0,16.4,7.4,16.4,16.4C531.1,317.7,523.7,325,514.6,325z"/>
<path class="st5" d="M404.6,170.8c-14.6,18.2-27.3,39.9-37.5,64.5c-11.7-2.8-23-5.9-33.3-9.3C353.7,203.4,377.6,184.6,404.6,170.8z"
	/>
<g>
	<path class="st0" d="M294.1,397.7v5.4h-30.6v19H290v5.4h-26.6v26.3h-6v-56.1L294.1,397.7L294.1,397.7z"/>
	<path class="st0" d="M354.3,397.7v37.8c0,2.3,0.4,4.3,1.3,6.1c0.8,1.8,1.9,3.3,3.3,4.6c1.4,1.3,2.9,2.2,4.6,2.9
		c1.7,0.7,3.4,1,5.2,1c1.8,0,3.7-0.3,5.5-0.9s3.5-1.5,5-2.7s2.7-2.7,3.6-4.5s1.4-3.9,1.4-6.3v-38h6v37.6c0,2.2-0.3,4.2-0.9,6
		s-1.4,3.5-2.4,5s-2.2,2.8-3.6,4c-1.4,1.1-2.8,2.1-4.4,2.9s-3.2,1.4-4.9,1.8c-1.7,0.4-3.4,0.6-5.1,0.6c-1.6,0-3.2-0.2-4.9-0.6
		c-1.6-0.4-3.2-1-4.7-1.7c-1.5-0.8-2.9-1.7-4.2-2.9c-1.3-1.1-2.5-2.5-3.4-4c-1-1.5-1.7-3.2-2.3-5.1c-0.6-1.9-0.8-3.9-0.8-6.2v-37.4
		L354.3,397.7L354.3,397.7z"/>
	<path class="st0" d="M481.8,397.7v5.4h-18.6v50.7h-6v-50.7h-18.6v-5.4H481.8z"/>
	<path class="st0" d="M539.1,397.7v37.8c0,2.3,0.4,4.3,1.3,6.1c0.8,1.8,1.9,3.3,3.3,4.6c1.4,1.3,2.9,2.2,4.6,2.9
		c1.7,0.7,3.4,1,5.2,1s3.7-0.3,5.5-0.9s3.5-1.5,5-2.7s2.7-2.7,3.6-4.5c0.9-1.8,1.4-3.9,1.4-6.3v-38h6v37.6c0,2.2-0.3,4.2-0.9,6
		c-0.6,1.8-1.4,3.5-2.4,5s-2.2,2.8-3.6,4c-1.4,1.1-2.8,2.1-4.4,2.9c-1.6,0.8-3.2,1.4-4.9,1.8s-3.4,0.6-5.1,0.6
		c-1.6,0-3.2-0.2-4.9-0.6c-1.6-0.4-3.2-1-4.7-1.7c-1.5-0.8-2.9-1.7-4.2-2.9c-1.3-1.1-2.5-2.5-3.4-4c-1-1.5-1.7-3.2-2.3-5.1
		s-0.8-3.9-0.8-6.2v-37.4L539.1,397.7L539.1,397.7z"/>
	<path class="st0" d="M669.9,413.6c0,1.4-0.2,2.8-0.5,4.1c-0.3,1.3-0.8,2.6-1.5,3.8c-0.7,1.2-1.5,2.3-2.5,3.3s-2.1,1.9-3.4,2.6
		c1.4,0.4,2.6,0.9,3.6,1.7c0.9,0.8,1.6,1.6,2.2,2.7c0.5,1,0.9,2.1,1.1,3.3c0.2,1.2,0.3,2.4,0.3,3.6v8.5c0,1.2,0.2,2.4,0.5,3.5
		s0.8,2.2,1.3,3.1h-6.5c-0.3-0.4-0.5-0.9-0.6-1.5c-0.1-0.5-0.3-1.1-0.3-1.7c-0.1-0.6-0.1-1.2-0.2-1.7c0-0.5,0-1,0-1.4v-8.9
		c0-1.1-0.2-2.1-0.5-3.2c-0.4-1.1-1-2-1.8-2.8s-1.9-1.5-3.2-2s-2.9-0.8-4.8-0.8h-17v24.1h-6v-56.1H653c2.7,0,5.2,0.5,7.3,1.4
		c2.1,1,3.9,2.2,5.3,3.7c1.4,1.5,2.5,3.2,3.3,5.1C669.5,409.8,669.9,411.7,669.9,413.6z M636,424.5h17c1.5,0,2.9-0.3,4.2-0.8
		c1.3-0.6,2.5-1.3,3.5-2.3s1.8-2.1,2.4-3.5c0.6-1.3,0.9-2.7,0.9-4.3c0-1.5-0.3-2.9-0.8-4.2c-0.6-1.3-1.3-2.4-2.3-3.3
		s-2.1-1.7-3.5-2.2c-1.3-0.5-2.8-0.8-4.3-0.8h-17v21.4H636z"/>
	<path class="st0" d="M760.8,397.7v5.4h-31.5v19h29.6v5.4h-29.6v20.8h32.9v5.4h-38.8v-56.1h37.4V397.7z"/>
</g>
<g id="fondo_negro1">
	<rect x="-36" y="-1128" class="st0" width="1049.8" height="1053.2"/>
	<g>
		<path class="st9" d="M657.3-752.8c17.5,26.1,28.2,57,30.2,90.2h-49.2c-0.9-28.8-5.6-56-13.4-80.6
			C636.5-746,647.4-749.2,657.3-752.8z"/>
		<path class="st9" d="M643.3-771.1c-8,2.6-16.7,5-25.8,7.2c-7.9-19-17.7-35.9-29.1-50C609.4-803.2,628-788.6,643.3-771.1z"/>
		<path class="st9" d="M563.1-662.6c-0.3-20.7-1.5-45.2-4.1-69.8c15.9-1.5,30.9-3.6,45.2-6.2c7.3,22.9,11.7,48.7,12.7,76.1
			L563.1-662.6L563.1-662.6z"/>
		<path class="st9" d="M596.4-759.4c-12.5,2.3-25.9,4.1-40.1,5.5c-4-29-10.2-56.3-19-75.9C561.4-817.9,582.1-792.8,596.4-759.4z"/>
		<path class="st9" d="M470.7-662.6c0.3-25.5,1.7-48.3,3.8-68.3c10.3,0.6,20.8,0.9,31.6,0.9s21.3-0.4,31.6-0.9
			c2.1,20,3.5,42.8,3.8,68.3H470.7z"/>
		<path class="st9" d="M500.9-833.5c1.7,0,3.5-0.3,5.2-0.3s3.5,0.2,5.2,0.3c7.4,9.4,17.3,36.7,23.7,81.1c-9.4,0.5-19,0.8-29,0.8
			c-9.9,0-19.5-0.3-28.9-0.8C483.6-796.8,493.5-824.1,500.9-833.5z"/>
		<path class="st9" d="M475-829.8c-8.8,19.6-15,46.9-19,75.9c-14.1-1.3-27.5-3.2-40.1-5.5C430.1-792.8,450.8-818,475-829.8z"/>
		<path class="st9" d="M449.2-662.6h-53.7c1-27.4,5.4-53.1,12.7-76.1c14.3,2.7,29.3,4.8,45.2,6.2
			C450.7-707.8,449.5-683.3,449.2-662.6z"/>
		<path class="st9" d="M354.9-752.8c10,3.6,20.9,6.8,32.5,9.6c-7.8,24.5-12.5,51.7-13.4,80.6h-49.2
			C326.7-695.8,337.4-726.7,354.9-752.8z"/>
		<path class="st10" d="M347.5-776.1c0,0-5.6-15,54.2-11c0,8.4-6.3,12.1-6.3,12.1s-47.7-7.2-47.9,12.4L347.5-776.1L347.5-776.1z"/>
		<path class="st10" d="M292.7-731.8c0,0-3.6-10.5,55.6-10.5c-3.6,7-2.9,4.7-5.6,10.6c-28.9,0-50,4-50,13.3V-731.8z"/>
		
			<linearGradient id="SVGID_5_" gradientUnits="userSpaceOnUse" x1="330.9688" y1="1751.55" x2="576.0697" y2="1751.55" gradientTransform="matrix(1 0 0 -1 0 1000)">
			<stop  offset="0" style="stop-color:#5AB9E4"/>
			<stop  offset="1" style="stop-color:#6B2EFB"/>
		</linearGradient>
		<path class="st11" d="M563.8-780.4c-13.1,0-24.1,8.8-27.6,20.8h-149c-26.2-0.5-39.7-9-39.7-16.5c0,13.9,0,16.5,0,16.5
			s-0.7,14.1,36.9,15.9v0.2h151.8c3.5,12,14.5,20.8,27.6,20.8c15.9,0,28.8-12.9,28.8-28.8C592.6-767.4,579.7-780.4,563.8-780.4z
			 M563.8-738.8c-7,0-12.7-5.7-12.7-12.7s5.7-12.7,12.7-12.7s12.7,5.7,12.7,12.7C576.6-744.5,570.9-738.8,563.8-738.8z"/>
		
			<linearGradient id="SVGID_6_" gradientUnits="userSpaceOnUse" x1="276.1439" y1="1707.1001" x2="521.2474" y2="1707.1001" gradientTransform="matrix(1 0 0 -1 0 1000)">
			<stop  offset="0" style="stop-color:#5AB9E4"/>
			<stop  offset="1" style="stop-color:#6B2EFB"/>
		</linearGradient>
		<path class="st12" d="M509-735.9c-13.1,0-24.1,8.8-27.6,20.8H338.7c-29.7,0.6-46-8.6-46-16.6c0,13.9,0,16.5,0,16.5
			s-1.2,15.1,41.2,16v0.1h147.5c3.5,12,14.5,20.8,27.6,20.8c15.9,0,28.8-12.9,28.8-28.8C537.8-723,524.9-735.9,509-735.9z
			 M509-694.4c-7,0-12.7-5.7-12.7-12.7s5.7-12.7,12.7-12.7s12.7,5.7,12.7,12.7C521.7-700.1,516-694.4,509-694.4z"/>
		<path class="st9" d="M423.8-813.9c-11.3,14.1-21.1,30.9-29,50c-9.1-2.2-17.8-4.5-25.8-7.2C384.3-788.6,402.9-803.2,423.8-813.9z"
			/>
		<g>
			<path class="st1" d="M171.2-551.7v8.2h-18.3v49.6h-9.8v-49.6h-18.3v-8.2H171.2z"/>
			<path class="st1" d="M242.1-551.7v8.2h-31v15.6h29.1v8.3h-29.1v17.3h32.4v8.4h-42.1v-57.8L242.1-551.7L242.1-551.7z"/>
			<path class="st1" d="M282.6-523.6c0,4,0.5,7.4,1.5,10.3c1,2.9,2.3,5.3,3.9,7.2c1.6,1.9,3.4,3.3,5.5,4.2c2,0.9,4.1,1.4,6.2,1.4
				s4.1-0.4,5.8-1.3c1.7-0.9,3.3-2,4.6-3.5s2.4-3.1,3.3-4.9s1.5-3.7,1.9-5.7h9.9c-0.6,3.3-1.7,6.3-3,9.2c-1.4,2.8-3.2,5.3-5.3,7.4
				c-2.1,2.1-4.6,3.8-7.5,5s-6.1,1.8-9.6,1.8c-4.1,0-7.8-0.7-11.1-2.1c-3.3-1.4-6.1-3.4-8.4-6.1s-4.1-5.9-5.4-9.8s-1.9-8.3-1.9-13.2
				c0-3.8,0.6-7.5,1.8-11.1c1.2-3.5,2.9-6.7,5.2-9.4c2.3-2.7,5.1-4.9,8.4-6.5s7.1-2.4,11.3-2.4c3.6,0,6.8,0.5,9.6,1.5
				c2.8,1,5.3,2.4,7.4,4.2s3.9,4,5.4,6.4c1.5,2.5,2.6,5.2,3.5,8.2h-10.2c-1.5-4.1-3.5-7.2-6.1-9.2s-5.8-3-9.7-3
				c-2.5,0-4.8,0.6-6.8,1.7c-2.1,1.1-3.8,2.7-5.3,4.6c-1.5,1.9-2.7,4.2-3.5,6.8C283-529.3,282.6-526.6,282.6-523.6z"/>
			<path class="st1" d="M364.4-551.7v23.8h26.2v-23.8h9.8v57.8h-9.8v-25.9h-26.2v25.9h-9.8v-57.8L364.4-551.7L364.4-551.7z"/>
			<path class="st1" d="M445.4-551.7l24.8,44v-44h9.8v57.8h-11l-25-44.4v44.4h-9.8v-57.8H445.4z"/>
			<path class="st1" d="M564.2-523c0,4.5-0.6,8.6-1.8,12.3s-2.9,7-5.2,9.7s-5.1,4.8-8.4,6.3c-3.3,1.5-7.1,2.2-11.4,2.2
				s-8.1-0.8-11.4-2.3c-3.3-1.5-6.1-3.6-8.4-6.3c-2.3-2.7-4-5.9-5.2-9.7c-1.2-3.7-1.8-7.9-1.8-12.3c0-4.5,0.6-8.6,1.8-12.3
				c1.2-3.7,2.9-6.9,5.2-9.5c2.3-2.7,5.1-4.7,8.4-6.2c3.3-1.5,7.1-2.2,11.4-2.2s8.1,0.7,11.4,2.2c3.3,1.5,6.1,3.5,8.4,6.2
				c2.3,2.7,4,5.8,5.2,9.5S564.2-527.4,564.2-523z M554.4-523c0-3.5-0.4-6.6-1.3-9.4c-0.9-2.7-2.1-5-3.6-6.9s-3.3-3.3-5.4-4.3
				c-2.1-1-4.3-1.5-6.7-1.5s-4.6,0.5-6.7,1.5c-2.1,1-3.8,2.4-5.3,4.3c-1.5,1.9-2.7,4.2-3.6,6.9c-0.9,2.7-1.3,5.9-1.3,9.4
				s0.4,6.6,1.3,9.4c0.9,2.8,2.1,5.1,3.6,7s3.3,3.4,5.3,4.4c2.1,1,4.3,1.5,6.7,1.5s4.6-0.5,6.7-1.5c2.1-1,3.9-2.5,5.4-4.4
				s2.7-4.3,3.6-7C554-516.4,554.4-519.5,554.4-523z"/>
			<path class="st1" d="M604.8-551.7v49.4h27.8v8.4H595v-57.8H604.8z"/>
			<path class="st1" d="M712.7-523c0,4.5-0.6,8.6-1.8,12.3s-2.9,7-5.2,9.7s-5.1,4.8-8.4,6.3c-3.3,1.5-7.1,2.2-11.4,2.2
				s-8.1-0.8-11.4-2.3c-3.3-1.5-6.1-3.6-8.4-6.3c-2.3-2.7-4-5.9-5.2-9.7c-1.2-3.7-1.8-7.9-1.8-12.3c0-4.5,0.6-8.6,1.8-12.3
				s2.9-6.9,5.2-9.5c2.3-2.7,5.1-4.7,8.4-6.2c3.3-1.5,7.1-2.2,11.4-2.2s8.1,0.7,11.4,2.2c3.3,1.5,6.1,3.5,8.4,6.2
				c2.3,2.7,4,5.8,5.2,9.5C712.1-531.5,712.7-527.4,712.7-523z M703-523c0-3.5-0.4-6.6-1.3-9.4c-0.9-2.7-2.1-5-3.6-6.9
				s-3.3-3.3-5.4-4.3c-2.1-1-4.3-1.5-6.7-1.5s-4.6,0.5-6.7,1.5c-2.1,1-3.8,2.4-5.3,4.3c-1.5,1.9-2.7,4.2-3.6,6.9
				c-0.9,2.7-1.3,5.9-1.3,9.4s0.4,6.6,1.3,9.4c0.9,2.8,2.1,5.1,3.6,7s3.3,3.4,5.3,4.4c2.1,1,4.3,1.5,6.7,1.5s4.6-0.5,6.7-1.5
				c2.1-1,3.9-2.5,5.4-4.4s2.7-4.3,3.6-7C702.5-516.4,703-519.5,703-523z"/>
			<path class="st1" d="M751.1-522.8c0,3.6,0.5,6.7,1.4,9.5c0.9,2.7,2.1,5.1,3.7,6.9c1.6,1.9,3.4,3.3,5.5,4.3s4.3,1.5,6.6,1.5
				c1.9,0,3.8-0.5,5.6-1.4s3.5-2.2,5-3.8c1.5-1.6,2.7-3.4,3.7-5.4c1-2,1.6-4.2,1.9-6.4h-17.1v-8.2h26.7v31.9h-7.3l-1.2-6.9
				c-1.1,1.2-2.3,2.2-3.7,3.3c-1.3,1-2.7,1.9-4.2,2.6s-3,1.3-4.6,1.8c-1.6,0.4-3.1,0.7-4.7,0.7c-4.1,0-7.9-0.8-11.2-2.3
				s-6.2-3.7-8.5-6.4c-2.3-2.7-4.1-5.9-5.4-9.6c-1.3-3.7-1.9-7.7-1.9-12.1c0-2.5,0.3-5,0.8-7.5s1.3-4.9,2.4-7.1
				c1-2.3,2.3-4.3,3.8-6.3c1.5-1.9,3.3-3.6,5.2-5c2-1.4,4.2-2.5,6.6-3.3c2.4-0.8,5-1.2,7.8-1.2c3.6,0,6.8,0.5,9.6,1.5
				s5.3,2.4,7.4,4.2c2.1,1.8,3.9,4,5.4,6.4c1.5,2.5,2.6,5.2,3.5,8.2h-10.2c-1.5-4.1-3.5-7.2-6.1-9.2s-5.8-3-9.7-3
				c-2.5,0-4.8,0.6-6.8,1.8c-2.1,1.2-3.8,2.8-5.3,4.8s-2.7,4.4-3.5,7.1S751.1-525.8,751.1-522.8z"/>
			<path class="st1" d="M846.7-526.1l14.5-25.6h11.1l-20.9,34.9v22.9h-9.8v-22.9l-20.9-34.9h11.1L846.7-526.1z"/>
		</g>
		<g>
			<path class="st1" d="M292.9-428.6c0.1,1.5,0.4,2.8,1,4.1c0.6,1.2,1.3,2.3,2.3,3.2c0.9,0.9,2.1,1.6,3.4,2.1s2.7,0.8,4.2,0.8
				c1.4,0,2.7-0.2,4-0.5s2.4-0.8,3.3-1.5c1-0.7,1.7-1.5,2.3-2.6c0.6-1.1,0.9-2.3,0.9-3.8c0-1.2-0.3-2.3-0.9-3.1
				c-0.6-0.9-1.4-1.6-2.5-2.2c-1-0.6-2.2-1.2-3.5-1.6c-1.3-0.5-2.6-0.9-3.9-1.3c-1.1-0.3-2.2-0.7-3.3-1c-1.1-0.4-2.2-0.8-3.2-1.3
				s-2-1-2.9-1.6s-1.7-1.3-2.3-2.2c-0.7-0.8-1.2-1.8-1.6-2.8c-0.4-1.1-0.6-2.3-0.6-3.7c0-1.7,0.3-3.2,1-4.5s1.6-2.4,2.8-3.3
				c1.2-0.9,2.7-1.6,4.4-2c1.7-0.5,3.5-0.7,5.5-0.7c1.8,0,3.4,0.2,4.8,0.5c1.4,0.4,2.6,0.8,3.6,1.5c1,0.6,1.9,1.3,2.6,2.1
				s1.3,1.7,1.7,2.6c0.5,0.9,0.8,1.8,1,2.8s0.4,1.9,0.4,2.8h-4.5c-0.1-1.4-0.4-2.6-1-3.6c-0.5-1-1.2-1.9-2.1-2.6s-1.8-1.2-3-1.6
				c-1.1-0.4-2.3-0.5-3.6-0.5c-1.2,0-2.3,0.1-3.4,0.4c-1.1,0.2-2.1,0.6-3,1.1s-1.6,1.2-2.1,2.1c-0.5,0.8-0.8,1.9-0.8,3.1
				c0,1.3,0.3,2.3,0.9,3.2s1.4,1.6,2.5,2.3s2.2,1.2,3.5,1.6c1.3,0.5,2.7,0.9,4.1,1.3c1.1,0.3,2.2,0.7,3.3,1.1
				c1.1,0.4,2.2,0.8,3.2,1.3s2,1,2.9,1.6s1.6,1.3,2.3,2.1c0.7,0.8,1.2,1.7,1.5,2.8c0.4,1,0.5,2.2,0.5,3.6c0,2-0.4,3.8-1.1,5.3
				s-1.8,2.8-3.1,3.8c-1.3,1-2.9,1.8-4.7,2.3c-1.8,0.5-3.8,0.8-5.9,0.8c-1.9,0-3.8-0.3-5.7-1c-1.8-0.7-3.5-1.6-4.9-2.8
				c-1.4-1.2-2.6-2.7-3.5-4.4c-0.9-1.7-1.3-3.7-1.4-5.9h4.6V-428.6z"/>
			<path class="st1" d="M360.1-457v27.8c0,1.7,0.3,3.2,0.9,4.5s1.4,2.5,2.4,3.4s2.1,1.6,3.4,2.1s2.5,0.7,3.8,0.7s2.7-0.2,4-0.7
				c1.4-0.5,2.6-1.1,3.6-2c1.1-0.9,2-2,2.6-3.3c0.7-1.3,1-2.9,1-4.6V-457h4.4v27.6c0,1.6-0.2,3.1-0.6,4.4c-0.4,1.4-1,2.6-1.8,3.7
				s-1.6,2.1-2.6,2.9s-2.1,1.5-3.3,2.1s-2.4,1-3.6,1.3c-1.3,0.3-2.5,0.4-3.7,0.4s-2.4-0.1-3.6-0.4s-2.4-0.7-3.5-1.3
				c-1.1-0.6-2.1-1.3-3.1-2.1c-1-0.8-1.8-1.8-2.5-2.9s-1.3-2.3-1.7-3.7s-0.6-2.9-0.6-4.5V-457H360.1z"/>
			<path class="st1" d="M426.9-457h15.6c2,0,3.8,0.4,5.3,1.1s2.8,1.6,3.9,2.7c1,1.1,1.8,2.4,2.4,3.8c0.5,1.4,0.8,2.8,0.8,4.2
				c0,1.5-0.3,3-0.8,4.4s-1.3,2.7-2.4,3.8c-1.1,1.1-2.4,2-3.9,2.7s-3.3,1-5.3,1h-11.2v17.7h-4.4V-457z M431.3-437.3h11.2
				c1.1,0,2.1-0.2,3-0.6c1-0.4,1.8-1,2.6-1.7c0.7-0.7,1.3-1.6,1.8-2.5c0.4-1,0.7-2,0.7-3.1s-0.2-2.1-0.6-3.1c-0.4-0.9-1-1.8-1.7-2.4
				c-0.7-0.7-1.6-1.2-2.5-1.6c-1-0.4-2-0.6-3.2-0.6h-11.2L431.3-437.3L431.3-437.3z"/>
			<path class="st1" d="M495.2-457h15.6c2,0,3.8,0.4,5.3,1.1s2.8,1.6,3.9,2.7c1,1.1,1.8,2.4,2.4,3.8c0.5,1.4,0.8,2.8,0.8,4.2
				c0,1.5-0.3,3-0.8,4.4s-1.3,2.7-2.4,3.8c-1.1,1.1-2.4,2-3.9,2.7s-3.3,1-5.3,1h-11.2v17.7h-4.4L495.2-457L495.2-457z M499.6-437.3
				h11.2c1.1,0,2.1-0.2,3-0.6s1.8-1,2.6-1.7c0.7-0.7,1.3-1.6,1.8-2.5c0.4-1,0.7-2,0.7-3.1s-0.2-2.1-0.6-3.1c-0.4-0.9-1-1.8-1.7-2.4
				c-0.7-0.7-1.6-1.2-2.5-1.6c-1-0.4-2-0.6-3.2-0.6h-11.2v15.6H499.6z"/>
			<path class="st1" d="M590.8-436.4c0,3.2-0.4,6.1-1.2,8.8c-0.8,2.7-2,5-3.6,6.9s-3.5,3.4-5.8,4.5s-4.9,1.6-7.9,1.6
				s-5.6-0.5-7.9-1.6s-4.2-2.6-5.8-4.5s-2.8-4.2-3.6-6.9c-0.8-2.7-1.2-5.6-1.2-8.8c0-3.2,0.4-6.1,1.2-8.7c0.8-2.7,2-4.9,3.6-6.9
				c1.6-1.9,3.5-3.4,5.8-4.5s4.9-1.6,7.9-1.6s5.6,0.5,7.9,1.6c2.3,1.1,4.2,2.6,5.8,4.5s2.8,4.2,3.6,6.9
				C590.4-442.4,590.8-439.5,590.8-436.4z M586.4-436.4c0-2.8-0.4-5.3-1.1-7.5c-0.7-2.2-1.7-4.1-3-5.6s-2.8-2.7-4.5-3.5
				s-3.6-1.2-5.5-1.2c-2,0-3.8,0.4-5.6,1.2c-1.7,0.8-3.2,2-4.5,3.5s-2.3,3.4-3,5.6s-1.1,4.7-1.1,7.5s0.4,5.3,1.1,7.5
				c0.7,2.2,1.7,4.1,3,5.6s2.8,2.7,4.5,3.5s3.6,1.2,5.6,1.2s3.8-0.4,5.5-1.2c1.7-0.8,3.2-2,4.5-3.5s2.3-3.4,3-5.6
				C586-431.1,586.4-433.6,586.4-436.4z"/>
			<path class="st1" d="M657.3-445.2c0,1-0.1,2-0.4,3c-0.2,1-0.6,1.9-1.1,2.8s-1.1,1.7-1.8,2.4c-0.7,0.7-1.6,1.4-2.5,1.9
				c1.1,0.3,1.9,0.7,2.6,1.3c0.7,0.6,1.2,1.2,1.6,2c0.4,0.7,0.7,1.5,0.8,2.4s0.2,1.8,0.2,2.7v6.2c0,0.9,0.1,1.8,0.4,2.6
				c0.2,0.8,0.6,1.6,0.9,2.3h-4.8c-0.2-0.3-0.4-0.7-0.5-1.1s-0.2-0.8-0.3-1.3c-0.1-0.4-0.1-0.9-0.1-1.3s0-0.8,0-1.1v-6.6
				c0-0.8-0.1-1.6-0.4-2.4c-0.3-0.8-0.7-1.5-1.3-2.1s-1.4-1.1-2.4-1.5s-2.1-0.6-3.5-0.6h-12.5v17.7h-4.4V-457h16.9
				c2,0,3.8,0.4,5.3,1.1s2.9,1.6,3.9,2.7c1.1,1.1,1.9,2.4,2.4,3.8C657-448,657.3-446.6,657.3-445.2z M632.3-437.3h12.5
				c1.1,0,2.1-0.2,3.1-0.6s1.8-1,2.6-1.7c0.7-0.7,1.3-1.6,1.8-2.5c0.4-1,0.7-2,0.7-3.1s-0.2-2.1-0.6-3.1c-0.4-0.9-1-1.8-1.7-2.4
				c-0.7-0.7-1.6-1.2-2.6-1.6s-2.1-0.6-3.2-0.6h-12.5L632.3-437.3L632.3-437.3z"/>
			<path class="st1" d="M724.8-457v4h-13.7v37.3h-4.4V-453h-13.6v-4H724.8z"/>
		</g>
		<g>
			<path class="st1" d="M337.3-627.5v4.2h-23.6v14.7h20.5v4.2h-20.5v20.3h-4.6v-43.4H337.3z"/>
			<path class="st1" d="M383.9-627.5v29.2c0,1.8,0.3,3.3,1,4.7s1.5,2.6,2.6,3.6c1,1,2.2,1.7,3.5,2.2s2.6,0.8,4,0.8s2.8-0.2,4.2-0.7
				c1.4-0.5,2.7-1.2,3.8-2.1c1.1-0.9,2.1-2.1,2.8-3.5c0.7-1.4,1.1-3,1.1-4.9v-29.4h4.6v29.1c0,1.7-0.2,3.2-0.7,4.7
				c-0.4,1.4-1.1,2.7-1.9,3.9s-1.7,2.2-2.8,3.1c-1.1,0.9-2.2,1.6-3.4,2.2c-1.2,0.6-2.5,1.1-3.8,1.4c-1.3,0.3-2.6,0.5-3.9,0.5
				c-1.2,0-2.5-0.2-3.8-0.5s-2.5-0.7-3.6-1.3c-1.2-0.6-2.3-1.3-3.3-2.2s-1.9-1.9-2.6-3.1c-0.7-1.2-1.3-2.5-1.8-3.9
				c-0.4-1.5-0.7-3-0.7-4.8v-28.9L383.9-627.5L383.9-627.5z"/>
			<path class="st1" d="M482.4-627.5v4.2H468v39.2h-4.6v-39.2h-14.3v-4.2H482.4z"/>
			<path class="st1" d="M526.8-627.5v29.2c0,1.8,0.3,3.3,1,4.7s1.5,2.6,2.6,3.6c1,1,2.2,1.7,3.5,2.2s2.6,0.8,4,0.8s2.8-0.2,4.2-0.7
				s2.7-1.2,3.8-2.1c1.1-0.9,2.1-2.1,2.8-3.5s1.1-3,1.1-4.9v-29.4h4.6v29.1c0,1.7-0.2,3.2-0.7,4.7c-0.4,1.4-1.1,2.7-1.9,3.9
				c-0.8,1.2-1.7,2.2-2.8,3.1c-1.1,0.9-2.2,1.6-3.4,2.2c-1.2,0.6-2.5,1.1-3.8,1.4c-1.3,0.3-2.6,0.5-3.9,0.5c-1.2,0-2.5-0.2-3.8-0.5
				s-2.5-0.7-3.6-1.3c-1.2-0.6-2.3-1.3-3.3-2.2s-1.9-1.9-2.6-3.1c-0.7-1.2-1.3-2.5-1.8-3.9c-0.4-1.5-0.7-3-0.7-4.8v-28.9
				L526.8-627.5L526.8-627.5z"/>
			<path class="st1" d="M627.9-615.1c0,1.1-0.1,2.1-0.4,3.2c-0.3,1-0.6,2-1.2,2.9c-0.5,0.9-1.1,1.8-1.9,2.5c-0.8,0.8-1.6,1.4-2.6,2
				c1.1,0.3,2,0.7,2.8,1.3c0.7,0.6,1.3,1.3,1.7,2.1s0.7,1.6,0.8,2.5c0.2,0.9,0.2,1.8,0.2,2.8v6.6c0,0.9,0.1,1.8,0.4,2.7
				c0.3,0.9,0.6,1.7,1,2.4h-5c-0.2-0.3-0.4-0.7-0.5-1.1c-0.1-0.4-0.2-0.9-0.3-1.3c-0.1-0.5-0.1-0.9-0.1-1.3c0-0.4,0-0.8,0-1.1v-6.9
				c0-0.8-0.1-1.7-0.4-2.5c-0.3-0.8-0.7-1.6-1.4-2.2c-0.6-0.6-1.5-1.2-2.5-1.6c-1-0.4-2.3-0.6-3.7-0.6h-13.1v18.6H597v-43.4h17.7
				c2.1,0,4,0.4,5.6,1.1s3,1.7,4.1,2.9s1.9,2.5,2.5,4C627.6-618,627.9-616.6,627.9-615.1z M601.6-606.7h13.1c1.1,0,2.2-0.2,3.2-0.7
				c1-0.4,1.9-1,2.7-1.8s1.4-1.7,1.9-2.7s0.7-2.1,0.7-3.3s-0.2-2.2-0.6-3.2c-0.4-1-1-1.8-1.8-2.6c-0.8-0.7-1.7-1.3-2.7-1.7
				s-2.2-0.6-3.4-0.6h-13.1L601.6-606.7L601.6-606.7z"/>
			<path class="st1" d="M698.1-627.5v4.2h-24.3v14.7h22.9v4.2h-22.9v16.1h25.4v4.2h-30v-43.4H698.1z"/>
		</g>
	</g>
</g>
</svg>
